<svg width="308" height="306" viewBox="0 0 308 306" fill="none" xmlns="http://www.w3.org/2000/svg">
<path d="M81.4416 155.991V131.396H77.3308L69.3219 145.146L61.4548 131.396H57.2732V155.991H61.6674V140.468L68.0462 151.667H70.6686L77.0473 140.468V155.991H81.4416Z" fill="white"/>
<path d="M91.2895 131.396H86.8953V155.991H91.2895V131.396Z" fill="white"/>
<path d="M115.815 155.991V131.396H111.421V148.053L101.073 131.396H96.6792V155.991H101.073V139.334L111.421 155.991H115.815Z" fill="white"/>
<path d="M125.596 131.396H121.202V155.991H125.596V131.396Z" fill="white"/>
<path d="M139.133 141.318C135.306 140.113 134.172 139.334 134.172 137.916C134.172 136.357 135.731 135.364 138.07 135.364H138.212C139.913 135.435 141.968 136.144 142.464 137.703L146.079 136.357C145.299 133.025 141.472 131.253 138.141 131.253C132.329 131.253 129.778 134.726 129.778 138.129C129.778 141.602 132.046 143.728 137.574 145.358C141.614 146.563 142.96 147.272 142.96 148.973C142.96 150.745 141.118 151.879 138.283 151.879C135.66 151.879 133.534 150.745 132.967 148.902L129.211 150.391C129.99 153.651 134.101 156.061 138.779 156.061C145.158 156.061 147.426 152.304 147.426 148.761C147.355 144.224 143.669 142.736 139.133 141.318Z" fill="white"/>
<path d="M167.766 150.391C168.262 149.257 168.475 148.052 168.475 146.776V140.609C168.475 139.334 168.191 138.129 167.766 136.995C167.27 135.861 166.561 134.868 165.782 134.018C164.931 133.167 163.939 132.529 162.805 132.033C161.671 131.537 160.466 131.253 159.19 131.253C157.914 131.253 156.71 131.537 155.576 132.033C154.442 132.529 153.449 133.167 152.599 134.018C151.748 134.868 151.11 135.861 150.614 136.995C150.118 138.129 149.835 139.334 149.835 140.609V146.847C149.835 148.123 150.118 149.328 150.614 150.462C151.11 151.596 151.748 152.588 152.599 153.438C153.449 154.289 154.442 154.927 155.576 155.423C156.71 155.919 157.914 156.132 159.19 156.132C160.466 156.132 161.671 155.848 162.805 155.352C163.939 154.856 164.931 154.218 165.782 153.368C166.561 152.517 167.27 151.525 167.766 150.391ZM164.081 147.272C164.081 147.91 163.939 148.548 163.655 149.186C163.372 149.753 163.017 150.32 162.592 150.745C162.167 151.17 161.6 151.525 161.033 151.808C160.395 152.021 159.757 152.163 159.119 152.163C158.481 152.163 157.844 152.021 157.206 151.808C156.568 151.525 156.072 151.241 155.646 150.745C155.221 150.32 154.867 149.753 154.583 149.186C154.3 148.619 154.158 147.981 154.158 147.272V140.042C154.158 139.405 154.3 138.767 154.583 138.2C154.867 137.633 155.221 137.065 155.646 136.64C156.072 136.215 156.639 135.861 157.206 135.577C158.411 135.081 159.757 135.081 161.033 135.577C161.6 135.79 162.167 136.144 162.592 136.64C163.017 137.065 163.372 137.633 163.655 138.2C163.939 138.767 164.081 139.405 164.081 140.042V147.272Z" fill="white"/>
<path d="M45.3644 131.324V128.701L43.5925 127H37.1429L35.371 128.701V131.324H28V156.06H52.7354V131.324H45.3644ZM48.6955 135.364H49.9004V142.239H48.6955V135.364ZM49.9004 146.421H46.5693V145.358H49.9004V146.421ZM37.1429 128.701H43.5925V131.324H37.1429V128.701ZM40.3323 142.239H39.1274V135.364H40.3323V142.239ZM33.3156 152.02C32.0399 152.02 30.9059 151.311 30.6224 150.461L31.6855 150.036C31.8273 150.532 32.4651 150.886 33.1739 150.886C33.9535 150.886 34.4496 150.532 34.4496 150.036C34.4496 149.539 34.0953 149.398 32.9613 149.043C31.402 148.547 30.7641 147.98 30.7641 147.059C30.7641 146.137 31.4729 145.145 33.103 145.145C34.0244 145.145 35.0875 145.641 35.3001 146.563L34.3079 146.917C34.1661 146.492 33.5991 146.279 33.103 146.279H33.0321C32.3943 146.279 31.969 146.563 31.969 146.988C31.969 147.413 32.3234 147.626 33.3865 147.909C34.6623 148.264 35.6545 148.689 35.6545 149.965C35.7254 150.957 35.0875 152.02 33.3156 152.02ZM34.5914 141.034H33.8826L32.1108 137.915V142.239H30.9059V135.364H32.0399L34.237 139.191L36.4341 135.364H37.5681V142.239H36.3633V137.915L34.5914 141.034ZM41.6789 149.469C41.6789 149.823 41.608 150.177 41.4663 150.461C41.3245 150.744 41.1119 151.028 40.8993 151.311C40.6866 151.524 40.4031 151.737 40.0488 151.878C39.7653 152.02 39.4109 152.091 39.0565 152.091C38.7021 152.091 38.3478 152.02 38.0643 151.878C37.7808 151.737 37.4973 151.524 37.2138 151.311C37.0011 151.099 36.7885 150.815 36.6468 150.461C36.505 150.177 36.4341 149.823 36.4341 149.469V147.697C36.4341 147.342 36.505 146.988 36.6468 146.704C36.7885 146.421 37.0011 146.137 37.2138 145.854C37.4264 145.641 37.7099 145.428 38.0643 145.287C38.3478 145.145 38.7021 145.074 39.0565 145.074C39.4109 145.074 39.7653 145.145 40.0488 145.287C40.3323 145.428 40.6158 145.641 40.8993 145.854C41.1119 146.066 41.3245 146.35 41.4663 146.704C41.608 146.988 41.6789 147.342 41.6789 147.697V149.469ZM41.8206 135.364H43.0255L45.9314 140.042V135.364H47.1363V142.239H45.9314L43.0255 137.561V142.239H41.8206V135.364ZM43.8051 145.145C44.2304 145.145 44.5848 145.499 44.5848 145.996C44.5848 146.421 44.2304 146.846 43.8051 146.846C43.3799 146.846 43.0255 146.492 43.0255 145.996C43.0255 145.57 43.3799 145.145 43.8051 145.145ZM46.4984 152.02C44.5848 152.02 43.0255 150.39 43.0255 148.335C43.0255 148.264 43.0255 148.264 43.0255 148.193V148.122H44.0178C44.0178 148.193 44.0178 148.264 44.0178 148.264C44.0178 149.752 45.1518 150.886 46.4984 150.886C47.9159 150.886 48.979 149.681 48.979 148.264C48.979 148.193 48.979 148.193 48.979 148.193V148.122H49.9713V148.193V148.264C49.9713 150.39 48.412 152.02 46.4984 152.02Z" fill="white"/>
<path d="M152.967 193.313V168.718H148.856L140.847 182.468L132.98 168.718H128.798V193.313H133.193V177.791L139.571 188.989H142.194L148.572 177.791V193.313H152.967Z" fill="white"/>
<path d="M162.815 168.718H158.42V193.313H162.815V168.718Z" fill="white"/>
<path d="M187.341 193.313V168.718H182.946V185.375L172.599 168.718H168.204V193.313H172.599V176.656L182.946 193.313H187.341Z" fill="white"/>
<path d="M197.121 168.718H192.727V193.313H197.121V168.718Z" fill="white"/>
<path d="M210.658 178.64C206.831 177.435 205.697 176.656 205.697 175.238C205.697 173.679 207.256 172.686 209.595 172.686H209.737C211.438 172.757 213.493 173.466 213.989 175.025L217.604 173.679C216.824 170.347 212.997 168.575 209.666 168.575C203.854 168.575 201.303 172.049 201.303 175.451C201.303 178.924 203.571 181.05 209.099 182.68C213.139 183.885 214.486 184.594 214.486 186.295C214.486 188.067 212.643 189.201 209.808 189.201C207.185 189.201 205.059 188.067 204.492 186.224L200.736 187.713C201.515 190.973 205.626 193.383 210.304 193.383C216.683 193.383 218.951 189.626 218.951 186.083C218.88 181.546 215.194 180.058 210.658 178.64Z" fill="white"/>
<path d="M239.291 187.713C239.787 186.579 240 185.374 240 184.098V177.931C240 176.656 239.717 175.451 239.291 174.317C238.795 173.183 238.086 172.19 237.307 171.34C236.456 170.489 235.464 169.851 234.33 169.355C233.196 168.859 231.991 168.575 230.715 168.575C229.44 168.575 228.235 168.859 227.101 169.355C225.967 169.851 224.975 170.489 224.124 171.34C223.274 172.19 222.636 173.183 222.139 174.317C221.643 175.451 221.36 176.656 221.36 177.931V184.169C221.36 185.445 221.643 186.65 222.139 187.784C222.636 188.918 223.274 189.91 224.124 190.761C224.975 191.611 225.967 192.249 227.101 192.745C228.235 193.241 229.44 193.454 230.715 193.454C231.991 193.454 233.196 193.17 234.33 192.674C235.464 192.178 236.456 191.54 237.307 190.69C238.086 189.839 238.795 188.847 239.291 187.713ZM235.606 184.594C235.606 185.232 235.464 185.87 235.18 186.508C234.897 187.075 234.543 187.642 234.117 188.067C233.692 188.492 233.125 188.847 232.558 189.13C231.92 189.343 231.282 189.485 230.644 189.485C230.007 189.485 229.369 189.343 228.731 189.13C228.093 188.847 227.597 188.563 227.172 188.067C226.746 187.642 226.392 187.075 226.108 186.508C225.825 185.941 225.683 185.303 225.683 184.594V177.364C225.683 176.727 225.825 176.089 226.108 175.522C226.392 174.955 226.746 174.387 227.172 173.962C227.597 173.537 228.164 173.183 228.731 172.899C229.936 172.403 231.282 172.403 232.558 172.899C233.125 173.112 233.692 173.466 234.117 173.962C234.543 174.387 234.897 174.955 235.18 175.522C235.464 176.089 235.606 176.727 235.606 177.364V184.594Z" fill="white"/>
<path d="M116.89 168.646V166.023L115.118 164.322H108.668L106.896 166.023V168.646H99.5251V193.382H124.261V168.646H116.89ZM120.221 172.686H121.426V179.561H120.221V172.686ZM121.426 183.743H118.094V182.68H121.426V183.743ZM108.668 166.023H115.118V168.646H108.668V166.023ZM111.857 179.561H110.653V172.686H111.857V179.561ZM104.841 189.342C103.565 189.342 102.431 188.633 102.148 187.783L103.211 187.358C103.352 187.854 103.99 188.208 104.699 188.208C105.479 188.208 105.975 187.854 105.975 187.358C105.975 186.861 105.62 186.72 104.486 186.365C102.927 185.869 102.289 185.302 102.289 184.381C102.289 183.459 102.998 182.467 104.628 182.467C105.55 182.467 106.613 182.963 106.825 183.885L105.833 184.239C105.691 183.814 105.124 183.601 104.628 183.601H104.557C103.919 183.601 103.494 183.885 103.494 184.31C103.494 184.735 103.849 184.948 104.912 185.231C106.187 185.586 107.18 186.011 107.18 187.287C107.251 188.279 106.613 189.342 104.841 189.342ZM106.117 178.356H105.408L103.636 175.237V179.561H102.431V172.686H103.565L105.762 176.513L107.959 172.686H109.093V179.561H107.888V175.237L106.117 178.356ZM113.204 186.791C113.204 187.145 113.133 187.499 112.991 187.783C112.85 188.066 112.637 188.35 112.424 188.633C112.212 188.846 111.928 189.059 111.574 189.2C111.29 189.342 110.936 189.413 110.582 189.413C110.227 189.413 109.873 189.342 109.589 189.2C109.306 189.059 109.022 188.846 108.739 188.633C108.526 188.421 108.314 188.137 108.172 187.783C108.03 187.499 107.959 187.145 107.959 186.791V185.019C107.959 184.664 108.03 184.31 108.172 184.026C108.314 183.743 108.526 183.459 108.739 183.176C108.952 182.963 109.235 182.751 109.589 182.609C109.873 182.467 110.227 182.396 110.582 182.396C110.936 182.396 111.29 182.467 111.574 182.609C111.857 182.751 112.141 182.963 112.424 183.176C112.637 183.388 112.85 183.672 112.991 184.026C113.133 184.31 113.204 184.664 113.204 185.019V186.791ZM113.346 172.686H114.551L117.457 177.364V172.686H118.661V179.561H117.457L114.551 174.883V179.561H113.346V172.686ZM115.33 182.467C115.756 182.467 116.11 182.821 116.11 183.318C116.11 183.743 115.756 184.168 115.33 184.168C114.905 184.168 114.551 183.814 114.551 183.318C114.551 182.892 114.905 182.467 115.33 182.467ZM118.024 189.342C116.11 189.342 114.551 187.712 114.551 185.657C114.551 185.586 114.551 185.586 114.551 185.515V185.444H115.543C115.543 185.515 115.543 185.586 115.543 185.586C115.543 187.074 116.677 188.208 118.024 188.208C119.441 188.208 120.504 187.003 120.504 185.586C120.504 185.515 120.504 185.515 120.504 185.515V185.444H121.496V185.515V185.586C121.496 187.712 119.937 189.342 118.024 189.342Z" fill="white"/>
<path d="M53.4416 230.635V206.04H49.3308L41.3219 219.79L33.4548 206.04H29.2732V230.635H33.6674V215.112L40.0462 226.311H42.6686L49.0473 215.112V230.635H53.4416Z" fill="white"/>
<path d="M63.2895 206.04H58.8953V230.635H63.2895V206.04Z" fill="white"/>
<path d="M87.8155 230.635V206.04H83.4212V222.696L73.0735 206.04H68.6792V230.635H73.0735V213.978L83.4212 230.635H87.8155Z" fill="white"/>
<path d="M97.5959 206.04H93.2017V230.635H97.5959V206.04Z" fill="white"/>
<path d="M111.133 215.962C107.306 214.757 106.172 213.977 106.172 212.56C106.172 211.001 107.731 210.008 110.07 210.008H110.212C111.913 210.079 113.968 210.788 114.464 212.347L118.079 211.001C117.299 207.669 113.472 205.897 110.141 205.897C104.329 205.897 101.778 209.37 101.778 212.772C101.778 216.246 104.046 218.372 109.574 220.002C113.614 221.207 114.96 221.916 114.96 223.617C114.96 225.389 113.118 226.523 110.283 226.523C107.66 226.523 105.534 225.389 104.967 223.546L101.211 225.035C101.99 228.295 106.101 230.705 110.779 230.705C117.158 230.705 119.426 226.948 119.426 223.404C119.355 218.868 115.669 217.38 111.133 215.962Z" fill="white"/>
<path d="M139.766 225.035C140.262 223.9 140.475 222.696 140.475 221.42V215.253C140.475 213.977 140.191 212.772 139.766 211.638C139.27 210.504 138.561 209.512 137.782 208.662C136.931 207.811 135.939 207.173 134.805 206.677C133.671 206.181 132.466 205.897 131.19 205.897C129.914 205.897 128.71 206.181 127.576 206.677C126.442 207.173 125.449 207.811 124.599 208.662C123.748 209.512 123.11 210.504 122.614 211.638C122.118 212.772 121.835 213.977 121.835 215.253V221.491C121.835 222.766 122.118 223.971 122.614 225.105C123.11 226.239 123.748 227.232 124.599 228.082C125.449 228.933 126.442 229.571 127.576 230.067C128.71 230.563 129.914 230.776 131.19 230.776C132.466 230.776 133.671 230.492 134.805 229.996C135.939 229.5 136.931 228.862 137.782 228.011C138.561 227.161 139.27 226.169 139.766 225.035ZM136.081 221.916C136.081 222.554 135.939 223.192 135.655 223.83C135.372 224.397 135.017 224.964 134.592 225.389C134.167 225.814 133.6 226.169 133.033 226.452C132.395 226.665 131.757 226.806 131.119 226.806C130.481 226.806 129.844 226.665 129.206 226.452C128.568 226.169 128.072 225.885 127.646 225.389C127.221 224.964 126.867 224.397 126.583 223.83C126.3 223.263 126.158 222.625 126.158 221.916V214.686C126.158 214.048 126.3 213.41 126.583 212.843C126.867 212.276 127.221 211.709 127.646 211.284C128.072 210.859 128.639 210.504 129.206 210.221C130.411 209.725 131.757 209.725 133.033 210.221C133.6 210.433 134.167 210.788 134.592 211.284C135.017 211.709 135.372 212.276 135.655 212.843C135.939 213.41 136.081 214.048 136.081 214.686V221.916Z" fill="white"/>
<path d="M17.3644 205.967V203.345L15.5925 201.644H9.14289L7.37101 203.345V205.967H0V230.704H24.7354V205.967H17.3644ZM20.6955 210.007H21.9004V216.883H20.6955V210.007ZM21.9004 221.065H18.5693V220.001H21.9004V221.065ZM9.14289 203.345H15.5925V205.967H9.14289V203.345ZM12.3323 216.883H11.1274V210.007H12.3323V216.883ZM5.31563 226.664C4.03988 226.664 2.90588 225.955 2.62238 225.105L3.68551 224.679C3.82726 225.176 4.46513 225.53 5.17388 225.53C5.9535 225.53 6.44963 225.176 6.44963 224.679C6.44963 224.183 6.09525 224.041 4.96125 223.687C3.402 223.191 2.76413 222.624 2.76413 221.703C2.76413 220.781 3.47289 219.789 5.10301 219.789C6.02439 219.789 7.08751 220.285 7.30013 221.206L6.30788 221.561C6.16613 221.135 5.59914 220.923 5.10301 220.923H5.03213C4.39426 220.923 3.96901 221.206 3.96901 221.632C3.96901 222.057 4.32338 222.27 5.38651 222.553C6.66226 222.907 7.65451 223.333 7.65451 224.609C7.72538 225.601 7.0875 226.664 5.31563 226.664ZM6.59138 215.678H5.88263L4.11075 212.559V216.883H2.90588V210.007H4.03989L6.237 213.835L8.43414 210.007H9.56813V216.883H8.36326V212.559L6.59138 215.678ZM13.6789 224.112C13.6789 224.467 13.608 224.821 13.4663 225.105C13.3245 225.388 13.1119 225.672 12.8993 225.955C12.6866 226.168 12.4031 226.38 12.0488 226.522C11.7653 226.664 11.4109 226.735 11.0565 226.735C10.7021 226.735 10.3478 226.664 10.0643 226.522C9.78076 226.38 9.49725 226.168 9.21375 225.955C9.00113 225.743 8.78851 225.459 8.64676 225.105C8.50501 224.821 8.43414 224.467 8.43414 224.112V222.34C8.43414 221.986 8.50501 221.632 8.64676 221.348C8.78851 221.065 9.00113 220.781 9.21375 220.498C9.42638 220.285 9.70989 220.072 10.0643 219.931C10.3478 219.789 10.7021 219.718 11.0565 219.718C11.4109 219.718 11.7653 219.789 12.0488 219.931C12.3323 220.072 12.6158 220.285 12.8993 220.498C13.1119 220.71 13.3245 220.994 13.4663 221.348C13.608 221.632 13.6789 221.986 13.6789 222.34V224.112ZM13.8206 210.007H15.0255L17.9314 214.686V210.007H19.1363V216.883H17.9314L15.0255 212.205V216.883H13.8206V210.007ZM15.8051 219.789C16.2304 219.789 16.5848 220.143 16.5848 220.639C16.5848 221.065 16.2304 221.49 15.8051 221.49C15.3799 221.49 15.0255 221.135 15.0255 220.639C15.0255 220.214 15.3799 219.789 15.8051 219.789ZM18.4984 226.664C16.5848 226.664 15.0255 225.034 15.0255 222.978C15.0255 222.907 15.0255 222.907 15.0255 222.837V222.766H16.0178C16.0178 222.837 16.0178 222.907 16.0178 222.907C16.0178 224.396 17.1518 225.53 18.4984 225.53C19.9159 225.53 20.979 224.325 20.979 222.907C20.979 222.837 20.979 222.837 20.979 222.837V222.766H21.9713V222.837V222.907C21.9713 225.034 20.412 226.664 18.4984 226.664Z" fill="white"/>
<path d="M110.669 267.957V243.362H106.558L98.549 257.112L90.6819 243.362H86.5002V267.957H90.8945V252.434L97.2732 263.633H99.8956L106.274 252.434V267.957H110.669Z" fill="white"/>
<path d="M120.517 243.362H116.122V267.957H120.517V243.362Z" fill="white"/>
<path d="M145.043 267.957V243.362H140.648V260.018L130.301 243.362H125.906V267.957H130.301V251.3L140.648 267.957H145.043Z" fill="white"/>
<path d="M154.823 243.362H150.429V267.957H154.823V243.362Z" fill="white"/>
<path d="M168.36 253.284C164.533 252.079 163.399 251.299 163.399 249.882C163.399 248.323 164.958 247.33 167.297 247.33H167.439C169.14 247.401 171.195 248.11 171.691 249.669L175.306 248.323C174.526 244.991 170.699 243.219 167.368 243.219C161.556 243.219 159.005 246.692 159.005 250.094C159.005 253.568 161.273 255.694 166.801 257.324C170.841 258.529 172.187 259.238 172.187 260.939C172.187 262.711 170.345 263.845 167.51 263.845C164.887 263.845 162.761 262.711 162.194 260.868L158.438 262.357C159.217 265.617 163.328 268.027 168.006 268.027C174.385 268.027 176.653 264.27 176.653 260.726C176.582 256.19 172.896 254.702 168.36 253.284Z" fill="white"/>
<path d="M196.993 262.357C197.489 261.222 197.702 260.018 197.702 258.742V252.575C197.702 251.299 197.418 250.094 196.993 248.96C196.497 247.826 195.788 246.834 195.009 245.984C194.158 245.133 193.166 244.495 192.032 243.999C190.898 243.503 189.693 243.219 188.417 243.219C187.142 243.219 185.937 243.503 184.803 243.999C183.669 244.495 182.676 245.133 181.826 245.984C180.975 246.834 180.338 247.826 179.841 248.96C179.345 250.094 179.062 251.299 179.062 252.575V258.813C179.062 260.088 179.345 261.293 179.841 262.427C180.338 263.561 180.975 264.554 181.826 265.404C182.676 266.255 183.669 266.893 184.803 267.389C185.937 267.885 187.142 268.098 188.417 268.098C189.693 268.098 190.898 267.814 192.032 267.318C193.166 266.822 194.158 266.184 195.009 265.333C195.788 264.483 196.497 263.491 196.993 262.357ZM193.308 259.238C193.308 259.876 193.166 260.514 192.882 261.152C192.599 261.719 192.245 262.286 191.819 262.711C191.394 263.136 190.827 263.491 190.26 263.774C189.622 263.987 188.984 264.128 188.346 264.128C187.709 264.128 187.071 263.987 186.433 263.774C185.795 263.491 185.299 263.207 184.874 262.711C184.448 262.286 184.094 261.719 183.81 261.152C183.527 260.585 183.385 259.947 183.385 259.238V252.008C183.385 251.37 183.527 250.732 183.81 250.165C184.094 249.598 184.448 249.031 184.874 248.606C185.299 248.181 185.866 247.826 186.433 247.543C187.638 247.047 188.984 247.047 190.26 247.543C190.827 247.755 191.394 248.11 191.819 248.606C192.245 249.031 192.599 249.598 192.882 250.165C193.166 250.732 193.308 251.37 193.308 252.008V259.238Z" fill="white"/>
<path d="M74.5914 243.289V240.667L72.8196 238.966H66.3699L64.5981 240.667V243.289H57.2271V268.026H81.9624V243.289H74.5914ZM77.9226 247.33H79.1274V254.205H77.9226V247.33ZM79.1274 258.387H75.7963V257.323H79.1274V258.387ZM66.3699 240.667H72.8196V243.289H66.3699V240.667ZM69.5593 254.205H68.3544V247.33H69.5593V254.205ZM62.5427 263.986C61.2669 263.986 60.1329 263.277 59.8494 262.427L60.9126 262.001C61.0543 262.498 61.6922 262.852 62.4009 262.852C63.1806 262.852 63.6767 262.498 63.6767 262.001C63.6767 261.505 63.3223 261.364 62.1883 261.009C60.6291 260.513 59.9912 259.946 59.9912 259.025C59.9912 258.103 60.6999 257.111 62.3301 257.111C63.2514 257.111 64.3146 257.607 64.5272 258.528L63.5349 258.883C63.3932 258.457 62.8262 258.245 62.3301 258.245H62.2592C61.6213 258.245 61.1961 258.528 61.1961 258.954C61.1961 259.379 61.5504 259.592 62.6136 259.875C63.8893 260.229 64.8816 260.655 64.8816 261.931C64.9524 262.923 64.3146 263.986 62.5427 263.986ZM63.8184 253H63.1097L61.3378 249.881V254.205H60.1329V247.33H61.2669L63.4641 251.157L65.6612 247.33H66.7952V254.205H65.5903V249.881L63.8184 253ZM70.9059 261.434C70.9059 261.789 70.8351 262.143 70.6933 262.427C70.5516 262.71 70.3389 262.994 70.1263 263.277C69.9137 263.49 69.6302 263.703 69.2758 263.844C68.9923 263.986 68.6379 264.057 68.2836 264.057C67.9292 264.057 67.5748 263.986 67.2913 263.844C67.0078 263.703 66.7243 263.49 66.4408 263.277C66.2282 263.065 66.0156 262.781 65.8738 262.427C65.7321 262.143 65.6612 261.789 65.6612 261.434V259.662C65.6612 259.308 65.7321 258.954 65.8738 258.67C66.0156 258.387 66.2282 258.103 66.4408 257.82C66.6534 257.607 66.9369 257.394 67.2913 257.253C67.5748 257.111 67.9292 257.04 68.2836 257.04C68.6379 257.04 68.9923 257.111 69.2758 257.253C69.5593 257.394 69.8428 257.607 70.1263 257.82C70.3389 258.032 70.5516 258.316 70.6933 258.67C70.8351 258.954 70.9059 259.308 70.9059 259.662V261.434ZM71.0477 247.33H72.2526L75.1584 252.008V247.33H76.3633V254.205H75.1584L72.2526 249.527V254.205H71.0477V247.33ZM73.0322 257.111C73.4574 257.111 73.8118 257.465 73.8118 257.961C73.8118 258.387 73.4574 258.812 73.0322 258.812C72.6069 258.812 72.2526 258.457 72.2526 257.961C72.2526 257.536 72.6069 257.111 73.0322 257.111ZM75.7254 263.986C73.8118 263.986 72.2526 262.356 72.2526 260.3C72.2526 260.229 72.2526 260.229 72.2526 260.159V260.088H73.2448C73.2448 260.159 73.2448 260.229 73.2448 260.229C73.2448 261.718 74.3788 262.852 75.7254 262.852C77.1429 262.852 78.2061 261.647 78.2061 260.229C78.2061 260.159 78.2061 260.159 78.2061 260.159V260.088H79.1983V260.159V260.229C79.1983 262.356 77.6391 263.986 75.7254 263.986Z" fill="white"/>
<path d="M95.4416 305.279V280.684H91.3308L83.3219 294.434L75.4548 280.684H71.2732V305.279H75.6674V289.756L82.0462 300.955H84.6686L91.0473 289.756V305.279H95.4416Z" fill="white"/>
<path d="M105.29 280.684H100.895V305.279H105.29V280.684Z" fill="white"/>
<path d="M129.815 305.279V280.684H125.421V297.34L115.073 280.684H110.679V305.279H115.073V288.622L125.421 305.279H129.815Z" fill="white"/>
<path d="M139.596 280.684H135.202V305.279H139.596V280.684Z" fill="white"/>
<path d="M153.133 290.606C149.306 289.401 148.172 288.621 148.172 287.204C148.172 285.645 149.731 284.652 152.07 284.652H152.212C153.913 284.723 155.968 285.432 156.465 286.991L160.079 285.645C159.3 282.313 155.472 280.541 152.141 280.541C146.329 280.541 143.778 284.014 143.778 287.417C143.778 290.89 146.046 293.016 151.574 294.646C155.614 295.851 156.961 296.56 156.961 298.261C156.961 300.033 155.118 301.167 152.283 301.167C149.661 301.167 147.534 300.033 146.967 298.19L143.211 299.679C143.991 302.939 148.101 305.349 152.779 305.349C159.158 305.349 161.426 301.592 161.426 298.048C161.355 293.512 157.669 292.024 153.133 290.606Z" fill="white"/>
<path d="M181.766 299.679C182.262 298.544 182.475 297.34 182.475 296.064V289.897C182.475 288.621 182.191 287.416 181.766 286.282C181.27 285.148 180.561 284.156 179.782 283.306C178.931 282.455 177.939 281.817 176.805 281.321C175.671 280.825 174.466 280.541 173.19 280.541C171.914 280.541 170.71 280.825 169.576 281.321C168.442 281.817 167.449 282.455 166.599 283.306C165.748 284.156 165.11 285.148 164.614 286.282C164.118 287.416 163.835 288.621 163.835 289.897V296.135C163.835 297.41 164.118 298.615 164.614 299.749C165.11 300.883 165.748 301.876 166.599 302.726C167.449 303.577 168.442 304.215 169.576 304.711C170.71 305.207 171.914 305.42 173.19 305.42C174.466 305.42 175.671 305.136 176.805 304.64C177.939 304.144 178.931 303.506 179.782 302.655C180.561 301.805 181.27 300.813 181.766 299.679ZM178.081 296.56C178.081 297.198 177.939 297.836 177.655 298.474C177.372 299.041 177.017 299.608 176.592 300.033C176.167 300.458 175.6 300.813 175.033 301.096C174.395 301.309 173.757 301.451 173.119 301.451C172.481 301.451 171.844 301.309 171.206 301.096C170.568 300.813 170.072 300.529 169.646 300.033C169.221 299.608 168.867 299.041 168.583 298.474C168.3 297.907 168.158 297.269 168.158 296.56V289.33C168.158 288.692 168.3 288.054 168.583 287.487C168.867 286.92 169.221 286.353 169.646 285.928C170.072 285.503 170.639 285.148 171.206 284.865C172.411 284.369 173.757 284.369 175.033 284.865C175.6 285.077 176.167 285.432 176.592 285.928C177.017 286.353 177.372 286.92 177.655 287.487C177.939 288.054 178.081 288.692 178.081 289.33V296.56Z" fill="white"/>
<path d="M59.3644 280.611V277.989L57.5925 276.288H51.1429L49.371 277.989V280.611H42V305.348H66.7354V280.611H59.3644ZM62.6955 284.652H63.9004V291.527H62.6955V284.652ZM63.9004 295.709H60.5693V294.645H63.9004V295.709ZM51.1429 277.989H57.5925V280.611H51.1429V277.989ZM54.3323 291.527H53.1274V284.652H54.3323V291.527ZM47.3156 301.308C46.0399 301.308 44.9059 300.599 44.6224 299.749L45.6855 299.323C45.8273 299.82 46.4651 300.174 47.1739 300.174C47.9535 300.174 48.4496 299.82 48.4496 299.323C48.4496 298.827 48.0953 298.686 46.9613 298.331C45.402 297.835 44.7641 297.268 44.7641 296.347C44.7641 295.425 45.4729 294.433 47.103 294.433C48.0244 294.433 49.0875 294.929 49.3001 295.85L48.3079 296.205C48.1661 295.78 47.5991 295.567 47.103 295.567H47.0321C46.3943 295.567 45.969 295.85 45.969 296.276C45.969 296.701 46.3234 296.914 47.3865 297.197C48.6623 297.551 49.6545 297.977 49.6545 299.253C49.7254 300.245 49.0875 301.308 47.3156 301.308ZM48.5914 290.322H47.8826L46.1108 287.203V291.527H44.9059V284.652H46.0399L48.237 288.479L50.4341 284.652H51.5681V291.527H50.3633V287.203L48.5914 290.322ZM55.6789 298.756C55.6789 299.111 55.608 299.465 55.4663 299.749C55.3245 300.032 55.1119 300.316 54.8993 300.599C54.6866 300.812 54.4031 301.025 54.0488 301.166C53.7653 301.308 53.4109 301.379 53.0565 301.379C52.7021 301.379 52.3478 301.308 52.0643 301.166C51.7808 301.025 51.4973 300.812 51.2138 300.599C51.0011 300.387 50.7885 300.103 50.6468 299.749C50.505 299.465 50.4341 299.111 50.4341 298.756V296.984C50.4341 296.63 50.505 296.276 50.6468 295.992C50.7885 295.709 51.0011 295.425 51.2138 295.142C51.4264 294.929 51.7099 294.716 52.0643 294.575C52.3478 294.433 52.7021 294.362 53.0565 294.362C53.4109 294.362 53.7653 294.433 54.0488 294.575C54.3323 294.716 54.6158 294.929 54.8993 295.142C55.1119 295.354 55.3245 295.638 55.4663 295.992C55.608 296.276 55.6789 296.63 55.6789 296.984V298.756ZM55.8206 284.652H57.0255L59.9314 289.33V284.652H61.1363V291.527H59.9314L57.0255 286.849V291.527H55.8206V284.652ZM57.8051 294.433C58.2304 294.433 58.5848 294.787 58.5848 295.283C58.5848 295.709 58.2304 296.134 57.8051 296.134C57.3799 296.134 57.0255 295.78 57.0255 295.283C57.0255 294.858 57.3799 294.433 57.8051 294.433ZM60.4984 301.308C58.5848 301.308 57.0255 299.678 57.0255 297.622C57.0255 297.551 57.0255 297.552 57.0255 297.481V297.41H58.0178C58.0178 297.481 58.0178 297.551 58.0178 297.551C58.0178 299.04 59.1518 300.174 60.4984 300.174C61.9159 300.174 62.979 298.969 62.979 297.551C62.979 297.481 62.979 297.481 62.979 297.481V297.41H63.9713V297.481V297.551C63.9713 299.678 62.412 301.308 60.4984 301.308Z" fill="white"/>
<path d="M5.1705 18.2H22.5785C30.7705 18.2 36.4025 23.512 36.4025 31.64C36.4025 39.768 30.5785 45.08 22.5785 45.08H11.5705V63H5.1705V18.2ZM11.5705 24.088V39.192H21.8745C27.0585 39.192 30.0025 36.504 30.0025 31.64C30.0025 26.776 27.1865 24.088 21.8745 24.088H11.5705ZM49.418 18.2H59.53L73.546 63H66.762L63.498 52.248H45.45L42.186 63H35.402L49.418 18.2ZM47.178 46.36H61.77L54.858 23.832H54.09L47.178 46.36ZM111.808 31.448C111.808 38.36 107.456 43.224 101.056 44.44L111.04 63H104L94.5275 44.696H85.6955V63H79.2955V18.2H97.9835C106.176 18.2 111.808 23.448 111.808 31.448ZM85.6955 24.088V38.808H97.2795C102.464 38.808 105.408 36.184 105.408 31.448C105.408 26.712 102.592 24.088 97.2795 24.088H85.6955ZM115.093 18.2H150.421V24.088H135.957V63H129.557V24.088H115.093V18.2ZM156.296 18.2H168.072L182.024 57.304H182.792V18.2H189.192V63H177.288L163.464 23.96H162.696V63H156.296V18.2ZM198.421 18.2H227.093V24.088H204.821V37.592H225.301V43.48H204.821V57.112H227.349V63H198.421V18.2ZM267.058 31.448C267.058 38.36 262.706 43.224 256.306 44.44L266.29 63H259.25L249.778 44.696H240.946V63H234.546V18.2H253.234C261.426 18.2 267.058 23.448 267.058 31.448ZM240.946 24.088V38.808H252.53C257.714 38.808 260.658 36.184 260.658 31.448C260.658 26.712 257.842 24.088 252.53 24.088H240.946ZM288.447 17.304C297.727 17.304 304.831 22.232 304.831 31.384V33.432H298.431V31.896C298.431 26.136 294.335 23.064 288.447 23.064C283.455 23.064 279.871 25.688 279.871 29.656C279.871 33.752 282.559 35.352 288.895 36.76L291.839 37.4C300.159 39.192 305.215 42.776 305.215 50.456C305.215 58.712 298.431 63.896 289.215 63.896C278.271 63.896 271.423 57.496 271.423 47.64V45.592H277.823V47.128C277.823 54.232 281.919 58.136 289.279 58.136C295.231 58.136 298.815 54.936 298.815 50.648C298.815 46.36 295.935 44.632 290.239 43.416L287.295 42.776C279.295 41.048 273.471 38.04 273.471 29.72C273.471 22.104 280.127 17.304 288.447 17.304Z" fill="white"/>
</svg>
