<svg width="494" height="311" viewBox="0 0 494 311" fill="none" xmlns="http://www.w3.org/2000/svg">
<g clip-path="url(#clip0_115_1791)">
<path d="M43.3824 0L31.8577 36.8648H37.4554L40.1719 28.0403H54.9895L57.706 36.8648H63.3038L51.6967 0H43.3824ZM41.5714 23.1745L47.2514 4.6184H47.91L53.59 23.1745H41.5714Z" fill="white"/>
<path d="M77.8744 30.6794H77.2159L69.3132 11.0511H63.9624L74.9109 37.3596L70.548 47.4211H75.8987L91.2102 11.0511H85.8594L77.8744 30.6794Z" fill="white"/>
<path d="M106.522 10.2264C99.0305 10.2264 93.6797 16.1644 93.6797 23.7518C93.6797 31.5866 99.1128 37.607 107.18 37.607C113.354 37.607 116.647 34.1432 118.623 31.0093L114.507 28.6176C113.107 31.3391 110.967 33.236 107.18 33.236C102.57 33.236 99.2774 30.3495 98.9481 25.7311H119.281V23.2569C119.199 15.8345 114.177 10.2264 106.522 10.2264ZM98.8658 21.7724C99.1951 17.154 101.994 14.515 106.522 14.515C111.049 14.515 113.848 17.319 114.013 21.7724H98.8658Z" fill="white"/>
<path d="M136.321 21.4426L134.181 21.1127C131.382 20.7004 128.83 20.453 128.83 17.8963C128.83 15.6696 130.97 14.4325 133.852 14.4325C136.898 14.4325 140.026 15.8346 142.825 19.5458L146.529 16.9067C142.495 12.3707 139.038 10.309 133.769 10.309C128.501 10.309 123.891 13.0305 123.891 17.9788C123.891 22.8446 127.76 24.7415 133.522 25.6487L135.663 25.9785C138.462 26.3909 141.754 26.6383 141.754 29.2774C141.754 31.834 139.12 33.401 135.416 33.401C131.217 33.401 127.925 31.0093 126.278 27.1331L121.833 29.5248C123.809 33.3185 127.925 37.607 135.251 37.607C141.919 37.607 146.611 34.2257 146.611 29.03C146.694 23.7518 142.166 22.2673 136.321 21.4426Z" fill="white"/>
<path d="M166.45 10.6388C161.346 10.6388 158.959 13.0305 157.807 15.4222H157.148V0H152.209V36.8648H157.148V23.4219C157.148 18.0613 160.112 15.0098 164.969 15.0098C169.167 15.0098 171.636 17.319 171.636 21.7725V36.8648H176.576V21.3601C176.493 14.2676 171.883 10.6388 166.45 10.6388Z" fill="white"/>
<path d="M194.933 10.309C188.594 10.309 184.478 13.8552 182.667 17.8139L186.948 19.7932C188.183 16.8242 190.652 14.7624 194.851 14.7624C199.049 14.7624 201.518 16.9067 201.518 20.3705V21.0303L191.969 21.9374C185.302 22.5972 182.091 25.0714 182.091 29.7722C182.091 34.3906 185.795 37.607 191.64 37.607C196.991 37.607 199.625 35.1329 200.778 32.8237H201.518V36.8648H206.375V20.6179C206.375 14.3501 201.93 10.309 194.933 10.309ZM201.518 25.4012C201.518 29.8547 198.555 33.4834 192.546 33.4834C189.088 33.4834 187.195 31.999 187.195 29.6073C187.195 26.9682 189.582 26.061 192.546 25.8136L201.518 24.9889V25.4012Z" fill="white"/>
<path d="M256.096 10.8862C256.096 4.28852 251.486 0 244.736 0H229.343V36.8648H234.611V21.8549H241.855L249.675 36.9472H255.438L247.206 21.69C252.474 20.6179 256.096 16.5768 256.096 10.8862ZM244.078 16.9891H234.611V4.86582H244.16C248.523 4.86582 250.828 7.01008 250.828 10.9687C250.828 14.9273 248.358 16.9891 244.078 16.9891Z" fill="white"/>
<path d="M273.054 10.309C266.716 10.309 262.6 13.8552 260.789 17.8139L265.069 19.7932C266.304 16.8242 268.774 14.7624 272.972 14.7624C277.17 14.7624 279.64 16.9067 279.64 20.3705V21.0303L270.091 21.9374C263.423 22.5972 260.212 25.0714 260.212 29.7722C260.212 34.3906 263.917 37.607 269.761 37.607C275.112 37.607 277.746 35.1329 278.899 32.8237H279.64V36.8648H284.497V20.6179C284.497 14.3501 279.969 10.309 273.054 10.309ZM279.64 25.4012C279.64 29.8547 276.676 33.4834 270.667 33.4834C267.21 33.4834 265.316 31.999 265.316 29.6073C265.316 26.9682 267.703 26.061 270.667 25.8136L279.64 24.9889V25.4012Z" fill="white"/>
<path d="M305.817 10.6388C300.714 10.6388 298.326 13.0305 297.174 15.4222H296.515V0H291.576V36.8648H296.515V23.4219C296.515 18.0613 299.479 15.0098 304.336 15.0098C308.534 15.0098 311.004 17.319 311.004 21.7725V36.8648H315.943V21.3601C315.86 14.2676 311.168 10.6388 305.817 10.6388Z" fill="white"/>
<path d="M350.846 10.6388C346.648 10.6388 344.425 12.7831 343.355 14.9273H342.614C341.379 12.5356 339.157 10.6388 335.452 10.6388C331.995 10.6388 329.69 12.2058 328.373 14.4325H327.632V11.0512H322.775V36.8647H327.714V20.7828C327.714 16.9066 330.266 14.8448 333.641 14.8448C336.605 14.8448 338.663 16.4943 338.663 19.5457V36.8647H343.602V20.7828C343.602 16.9066 345.989 14.8448 349.2 14.8448C352.246 14.8448 354.551 16.4943 354.551 19.5457V36.8647H359.49V19.2158C359.654 13.9377 355.456 10.6388 350.846 10.6388Z" fill="white"/>
<path d="M378.094 10.309C371.755 10.309 367.639 13.8552 365.828 17.8139L370.109 19.7932C371.344 16.8242 373.813 14.7624 378.012 14.7624C382.21 14.7624 384.68 16.9067 384.68 20.3705V21.0303L375.131 21.9374C368.463 22.5972 365.252 25.0714 365.252 29.7722C365.252 34.3906 368.957 37.607 374.801 37.607C380.152 37.607 382.786 35.1329 383.939 32.8237H384.68V36.8648H389.536V20.6179C389.536 14.3501 385.009 10.309 378.094 10.309ZM384.68 25.4012C384.68 29.8547 381.716 33.4834 375.707 33.4834C372.249 33.4834 370.356 31.999 370.356 29.6073C370.356 26.9682 372.743 26.061 375.707 25.8136L384.68 24.9889V25.4012Z" fill="white"/>
<path d="M410.857 10.6388C405.753 10.6388 403.366 13.0305 402.214 15.4221H401.473V11.0512H396.616V36.8647H401.555V23.4219C401.555 18.0612 404.519 15.0098 409.376 15.0098C413.574 15.0098 416.043 17.319 416.043 21.7724V36.8647H420.983V21.3601C420.9 14.2675 416.208 10.6388 410.857 10.6388Z" fill="white"/>
<path d="M166.039 52.6993L148.834 68.9462H148.175V52.6993H142.907V89.6466H148.175V76.2037L153.608 71.0905L166.779 89.6466H173.036L157.477 67.5442L173.365 52.6993H166.039Z" fill="white"/>
<path d="M187.936 63.0907C181.597 63.0907 177.481 66.637 175.67 70.5956L179.951 72.5749C181.185 69.6059 183.655 67.5442 187.853 67.5442C192.052 67.5442 194.521 69.6884 194.521 73.1522V73.812L184.972 74.7192C178.304 75.379 175.094 77.8531 175.094 82.554C175.094 87.1724 178.798 90.3888 184.643 90.3888C189.994 90.3888 192.628 87.9146 193.78 85.6054H194.521V89.6465H199.378V73.3172C199.296 67.1318 194.85 63.0907 187.936 63.0907ZM194.521 78.1005C194.521 82.554 191.558 86.1827 185.548 86.1827C182.091 86.1827 180.198 84.6982 180.198 82.3066C180.198 79.6675 182.585 78.7603 185.548 78.5129L194.521 77.6882V78.1005Z" fill="white"/>
<path d="M234.364 63.3381C230.165 63.3381 227.943 65.4824 226.873 67.6266H226.132C224.897 65.235 222.674 63.3381 218.97 63.3381C215.513 63.3381 213.208 64.9051 211.89 67.1318H211.15V63.7505H206.293V89.5641H211.232V73.4821C211.232 69.606 213.784 67.5442 217.159 67.5442C220.122 67.5442 222.18 69.1936 222.18 72.2451V89.5641H227.12V73.4821C227.12 69.606 229.507 67.5442 232.717 67.5442C235.763 67.5442 238.068 69.1936 238.068 72.2451V89.5641H243.007V71.9976C243.09 66.637 238.974 63.3381 234.364 63.3381Z" fill="white"/>
<path d="M261.612 63.0907C255.273 63.0907 251.157 66.637 249.346 70.5956L253.544 72.5749C254.779 69.6059 257.249 67.5442 261.447 67.5442C265.645 67.5442 268.115 69.6884 268.115 73.1522V73.812L258.566 74.7192C251.898 75.379 248.688 77.8531 248.688 82.554C248.688 87.1724 252.392 90.3888 258.237 90.3888C263.587 90.3888 266.222 87.9146 267.374 85.6054H268.115V89.6465H272.972V73.3172C272.972 67.1318 268.527 63.0907 261.612 63.0907ZM268.197 78.1005C268.197 82.554 265.234 86.1827 259.224 86.1827C255.767 86.1827 253.874 84.6982 253.874 82.3066C253.874 79.6675 256.261 78.7603 259.224 78.5129L268.197 77.6882V78.1005Z" fill="white"/>
<path d="M284.99 52.6993H280.051V89.5641H284.99V52.6993Z" fill="white"/>
<path d="M329.525 68.6988H313.555V52.6993H308.287V89.6466H313.555V73.5646H329.525V89.6466H334.794V52.6993H329.525V68.6988Z" fill="white"/>
<path d="M353.81 63.0907C346.236 63.0907 340.556 68.6988 340.556 76.781C340.556 84.8632 346.236 90.4712 353.81 90.4712C361.383 90.4712 367.063 84.8632 367.063 76.781C367.063 68.6988 361.383 63.0907 353.81 63.0907ZM353.81 85.8528C348.87 85.8528 345.495 82.389 345.495 76.6985C345.495 71.008 348.87 67.5442 353.81 67.5442C358.749 67.5442 362.124 71.008 362.124 76.6985C362.124 82.389 358.749 85.8528 353.81 85.8528Z" fill="white"/>
<path d="M384.433 74.142L382.292 73.8121C379.493 73.3997 376.942 73.1523 376.942 70.5957C376.942 68.3689 379.082 67.1319 381.963 67.1319C385.009 67.1319 388.137 68.5339 390.936 72.2451L394.64 69.606C390.607 65.0701 387.149 63.0083 381.881 63.0083C376.612 63.0083 372.002 65.7299 372.002 70.6781C372.002 75.544 375.871 77.4408 381.634 78.348L383.774 78.6779C386.573 79.0902 389.866 79.3377 389.866 81.9767C389.866 84.5334 387.231 86.1003 383.527 86.1003C379.329 86.1003 376.036 83.7086 374.39 79.8325L369.944 82.2242C371.92 86.0178 376.036 90.3064 383.362 90.3064C390.03 90.3064 394.723 86.925 394.723 81.7293C394.805 76.4512 390.277 75.0491 384.433 74.142Z" fill="white"/>
<path d="M411.598 74.142L409.458 73.8121C406.659 73.3997 404.107 73.1523 404.107 70.5957C404.107 68.3689 406.247 67.1319 409.128 67.1319C412.174 67.1319 415.302 68.5339 418.101 72.2451L421.806 69.606C417.772 65.0701 414.314 63.0083 409.046 63.0083C403.778 63.0083 399.168 65.7299 399.168 70.6781C399.168 75.544 403.037 77.4408 408.799 78.348L410.939 78.6779C413.738 79.0902 417.031 79.3377 417.031 81.9767C417.031 84.5334 414.397 86.1003 410.692 86.1003C406.494 86.1003 403.201 83.7086 401.555 79.8325L397.11 82.2242C399.085 86.0178 403.201 90.3064 410.528 90.3064C417.196 90.3064 421.888 86.925 421.888 81.7293C422.052 76.4512 417.443 75.0491 411.598 74.142Z" fill="white"/>
<path d="M438.928 63.0907C432.589 63.0907 428.473 66.637 426.662 70.5956L430.943 72.5749C432.178 69.6059 434.647 67.5442 438.846 67.5442C443.044 67.5442 445.514 69.6884 445.514 73.1522V73.812L435.965 74.7192C429.297 75.379 426.086 77.8531 426.086 82.554C426.086 87.1724 429.791 90.3888 435.635 90.3888C440.986 90.3888 443.62 87.9146 444.773 85.6054H445.514V89.6465H450.37V73.3172C450.37 67.1318 445.843 63.0907 438.928 63.0907ZM445.514 78.1005C445.514 82.554 442.55 86.1827 436.541 86.1827C433.083 86.1827 431.19 84.6982 431.19 82.3066C431.19 79.6675 433.577 78.7603 436.541 78.5129L445.514 77.6882V78.1005Z" fill="white"/>
<path d="M462.307 63.7505H457.368V89.5641H462.307V63.7505Z" fill="white"/>
<path d="M459.837 59.7919C462.065 59.7919 463.871 58.0565 463.871 55.9157C463.871 53.775 462.065 52.0396 459.837 52.0396C457.61 52.0396 455.804 53.775 455.804 55.9157C455.804 58.0565 457.61 59.7919 459.837 59.7919Z" fill="white"/>
<path d="M483.957 63.3381C478.853 63.3381 476.466 65.7298 475.313 68.1215H474.572V63.7505H469.716V89.5641H474.655V76.1212C474.655 70.7606 477.618 67.7091 482.475 67.7091C486.673 67.7091 489.143 70.0183 489.143 74.4718V89.5641H494.082V74.0594C494 66.9669 489.39 63.3381 483.957 63.3381Z" fill="white"/>
<path d="M56.5535 137.645H55.8949L44.4525 105.399H34.7388V142.346H40.0072V110.182H40.5835L52.0259 142.346H61.7396V105.399H56.5535V137.645Z" fill="white"/>
<path d="M80.6732 115.79C74.3345 115.79 70.2186 119.336 68.4075 123.295L72.6882 125.274C73.923 122.305 76.3925 120.243 80.5908 120.243C84.7891 120.243 87.2587 122.388 87.2587 125.851V126.511L77.7097 127.418C71.0418 128.078 67.8313 130.552 67.8313 135.253C67.8313 139.872 71.5357 143.088 77.3804 143.088C82.7311 143.088 85.3654 140.614 86.5178 138.305H87.2587V142.346H92.1156V126.016C92.1156 119.831 87.588 115.79 80.6732 115.79ZM87.2587 130.882C87.2587 135.336 84.2952 138.964 78.2859 138.964C74.8285 138.964 72.9351 137.48 72.9351 135.088C72.9351 132.449 75.3224 131.542 78.2859 131.295L87.2587 130.47V130.882Z" fill="white"/>
<path d="M119.034 120.573H118.375C116.976 118.182 114.589 115.79 109.567 115.79C102.817 115.79 97.4663 121.398 97.4663 129.48C97.4663 137.562 102.817 143.17 109.567 143.17C114.589 143.17 116.976 140.779 118.375 138.387H119.116V142.428H123.973V105.563H119.034V120.573ZM110.802 138.635C105.863 138.635 102.405 135.336 102.405 129.398C102.405 123.46 105.863 120.161 110.802 120.161C115.824 120.161 119.034 123.707 119.034 129.398C119.034 135.088 115.906 138.635 110.802 138.635Z" fill="white"/>
<path d="M136.321 116.532H131.382V142.346H136.321V116.532Z" fill="white"/>
<path d="M133.852 112.491C136.079 112.491 137.885 110.756 137.885 108.615C137.885 106.474 136.079 104.739 133.852 104.739C131.624 104.739 129.818 106.474 129.818 108.615C129.818 110.756 131.624 112.491 133.852 112.491Z" fill="white"/>
<path d="M155.09 115.79C148.752 115.79 144.636 119.336 142.825 123.295L147.105 125.274C148.34 122.305 150.81 120.243 155.008 120.243C159.206 120.243 161.676 122.388 161.676 125.851V126.511L152.127 127.418C145.459 128.078 142.248 130.552 142.248 135.253C142.248 139.872 145.953 143.088 151.797 143.088C157.148 143.088 159.782 140.614 160.935 138.305H161.676V142.346H166.533V126.016C166.533 119.831 162.005 115.79 155.09 115.79ZM161.676 130.882C161.676 135.336 158.712 138.964 152.703 138.964C149.245 138.964 147.352 137.48 147.352 135.088C147.352 132.449 149.739 131.542 152.703 131.295L161.676 130.47V130.882Z" fill="white"/>
<path d="M194.686 105.399H189.417V142.263H194.686V105.399Z" fill="white"/>
<path d="M214.031 126.924L211.891 126.594C209.092 126.181 206.54 125.934 206.54 123.377C206.54 121.151 208.68 119.913 211.561 119.913C214.607 119.913 217.735 121.316 220.534 125.027L224.239 122.388C220.205 117.852 216.748 115.79 211.479 115.79C206.211 115.79 201.601 118.511 201.601 123.46C201.601 128.326 205.47 130.222 211.232 131.13L213.372 131.46C216.171 131.872 219.464 132.119 219.464 134.758C219.464 137.315 216.83 138.882 213.125 138.882C208.927 138.882 205.634 136.49 203.988 132.614L199.543 135.006C201.518 138.799 205.634 143.088 212.961 143.088C219.629 143.088 224.321 139.707 224.321 134.511C224.403 129.15 219.876 127.748 214.031 126.924Z" fill="white"/>
<path d="M234.858 105.399H229.918V142.263H234.858V105.399Z" fill="white"/>
<path d="M253.627 115.79C247.288 115.79 243.172 119.336 241.361 123.295L245.642 125.274C246.876 122.305 249.346 120.243 253.544 120.243C257.743 120.243 260.212 122.388 260.212 125.851V126.511L250.663 127.418C243.995 128.078 240.785 130.552 240.785 135.253C240.785 139.872 244.489 143.088 250.334 143.088C255.685 143.088 258.319 140.614 259.471 138.305H260.212V142.346H265.069V126.016C265.069 119.831 260.541 115.79 253.627 115.79ZM260.212 130.882C260.212 135.336 257.249 138.964 251.239 138.964C247.782 138.964 245.888 137.48 245.888 135.088C245.888 132.449 248.276 131.542 251.239 131.295L260.212 130.47V130.882Z" fill="white"/>
<path d="M300.137 116.12C295.939 116.12 293.716 118.264 292.646 120.408H291.905C290.67 118.017 288.448 116.12 284.743 116.12C281.286 116.12 278.981 117.687 277.664 119.914H276.923V116.532H272.066V142.346H277.005V126.181C277.005 122.305 279.557 120.243 282.932 120.243C285.896 120.243 287.954 121.893 287.954 124.944V142.263H292.893V126.181C292.893 122.305 295.28 120.243 298.491 120.243C301.537 120.243 303.842 121.893 303.842 124.944V142.263H308.781V124.614C308.863 119.336 304.665 116.12 300.137 116.12Z" fill="white"/>
<path d="M0 195.045H5.26846V178.963H21.9793V174.097H5.26846V163.046H22.9672V158.18H0V195.045Z" fill="white"/>
<path d="M38.9371 168.489C32.5985 168.489 28.4825 172.036 26.6715 175.994L30.9521 177.973C32.1869 175.005 34.6565 172.943 38.8548 172.943C43.0531 172.943 45.5226 175.087 45.5226 178.551V179.211L35.9736 180.118C29.3057 180.778 26.0952 183.252 26.0952 187.953C26.0952 192.571 29.7996 195.787 35.6443 195.787C40.9951 195.787 43.6293 193.313 44.7818 191.004H45.5226V195.045H50.3795V178.716C50.3795 172.53 45.8519 168.489 38.9371 168.489ZM45.5226 183.582C45.5226 188.035 42.5591 191.664 36.5498 191.664C33.0924 191.664 31.199 190.179 31.199 187.788C31.199 185.148 33.5863 184.241 36.5498 183.994L45.5226 183.169V183.582Z" fill="white"/>
<path d="M62.8921 173.438H62.1512V169.231H57.3767V195.045H62.3159V179.953C62.3159 176.077 64.2916 173.932 67.9959 173.932H72.5235V169.067H69.56C65.8556 169.149 63.7976 170.716 62.8921 173.438Z" fill="white"/>
<path d="M91.4571 168.819C86.3533 168.819 83.966 171.211 82.8136 173.602H82.155V158.18H77.2158V195.045H82.155V181.52C82.155 176.159 85.1185 173.108 89.9754 173.108C94.1737 173.108 96.6432 175.417 96.6432 179.87V194.963H101.582V179.375C101.5 172.365 96.8902 168.819 91.4571 168.819Z" fill="white"/>
<path d="M119.94 168.489C113.601 168.489 109.485 172.036 107.674 175.994L111.955 177.973C113.19 175.005 115.659 172.943 119.857 172.943C124.056 172.943 126.525 175.087 126.525 178.551V179.211L116.976 180.118C110.308 180.778 107.098 183.252 107.098 187.953C107.098 192.571 110.802 195.787 116.647 195.787C121.998 195.787 124.632 193.313 125.784 191.004H126.525V195.045H131.382V178.716C131.382 172.53 126.937 168.489 119.94 168.489ZM126.525 183.582C126.525 188.035 123.562 191.664 117.552 191.664C114.095 191.664 112.202 190.179 112.202 187.788C112.202 185.148 114.589 184.241 117.552 183.994L126.525 183.169V183.582Z" fill="white"/>
<path d="M152.703 168.819C147.599 168.819 145.212 171.211 144.059 173.603H143.319V169.232H138.462V195.045H143.401V181.52C143.401 176.159 146.364 173.108 151.221 173.108C155.42 173.108 157.889 175.417 157.889 179.87V194.963H162.828V179.376C162.746 172.365 158.136 168.819 152.703 168.819Z" fill="white"/>
<path d="M194.357 158.18L182.832 195.045H188.43L191.146 186.221H205.964L208.68 195.045H214.278L202.753 158.18H194.357ZM192.545 181.355L198.226 162.799H198.884L204.564 181.355H192.545Z" fill="white"/>
<path d="M223.827 158.18H218.888V195.045H223.827V158.18Z" fill="white"/>
<path d="M233.623 165.19C235.851 165.19 237.657 163.455 237.657 161.314C237.657 159.174 235.851 157.438 233.623 157.438C231.395 157.438 229.589 159.174 229.589 161.314C229.589 163.455 231.395 165.19 233.623 165.19Z" fill="white"/>
<path d="M236.093 169.232H231.154V195.045H236.093V169.232Z" fill="white"/>
<path d="M49.3918 226.714L47.0046 226.219C41.8184 225.065 39.5958 223.745 39.5958 220.364C39.5958 217.065 42.5593 214.921 46.6753 214.921C51.5321 214.921 54.9072 217.477 54.9072 222.178V223.415H60.0934V221.766C60.0934 214.261 54.2487 210.137 46.593 210.137C39.7604 210.137 34.245 214.096 34.245 220.364C34.245 227.209 39.0196 229.683 45.6051 231.085L47.9924 231.58C52.6846 232.57 55.0719 233.972 55.0719 237.518C55.0719 241.064 52.1084 243.703 47.2515 243.703C41.1599 243.703 37.8671 240.487 37.8671 234.631V233.394H32.5986V235.044C32.5986 243.126 38.1964 248.404 47.2515 248.404C54.8249 248.404 60.4227 244.116 60.4227 237.353C60.4227 231.085 56.2244 228.199 49.3918 226.714Z" fill="white"/>
<path d="M85.4479 235.456C85.4479 240.817 82.4844 243.868 77.6276 243.868C73.4293 243.868 70.9597 241.559 70.9597 237.105V222.013H66.0205V237.518C66.0205 244.61 70.6304 248.239 76.0635 248.239C81.1673 248.239 83.5546 245.847 84.7071 243.456H85.4479V247.827H90.3048V222.013H85.3656V235.456H85.4479Z" fill="white"/>
<path d="M125.784 221.518C121.586 221.518 119.363 223.663 118.293 225.807H117.552C116.318 223.415 114.095 221.518 110.391 221.518C106.933 221.518 104.628 223.085 103.311 225.312H102.57V221.931H97.7134V247.744H102.653V231.58C102.653 227.704 105.204 225.642 108.58 225.642C111.543 225.642 113.601 227.291 113.601 230.343V247.662H118.54V231.497C118.54 227.621 120.928 225.56 124.138 225.56C127.184 225.56 129.489 227.209 129.489 230.26V247.579H134.428V230.095C134.51 224.817 130.312 221.518 125.784 221.518Z" fill="white"/>
<path d="M152.95 221.188C146.611 221.188 142.495 224.735 140.684 228.693L144.965 230.673C146.2 227.704 148.669 225.642 152.868 225.642C157.066 225.642 159.536 227.786 159.536 231.25V231.91L149.987 232.817C143.319 233.477 140.108 235.951 140.108 240.652C140.108 245.27 143.813 248.487 149.657 248.487C155.008 248.487 157.642 246.012 158.795 243.703H159.536V247.744H164.392V231.415C164.392 225.23 159.947 221.188 152.95 221.188ZM159.536 236.281C159.536 240.734 156.572 244.363 150.563 244.363C147.105 244.363 145.212 242.878 145.212 240.487C145.212 237.848 147.599 236.941 150.563 236.693L159.536 235.868V236.281Z" fill="white"/>
<path d="M173.941 217.89C176.169 217.89 177.975 216.154 177.975 214.013C177.975 211.873 176.169 210.137 173.941 210.137C171.714 210.137 169.908 211.873 169.908 214.013C169.908 216.154 171.714 217.89 173.941 217.89Z" fill="white"/>
<path d="M176.411 221.931H171.472V247.744H176.411V221.931Z" fill="white"/>
<path d="M195.098 241.559H194.439L186.454 221.931H181.103L192.134 248.239L187.771 258.301H193.122L208.351 221.931H203L195.098 241.559Z" fill="white"/>
<path d="M223.992 221.188C217.653 221.188 213.537 224.735 211.726 228.693L216.007 230.673C217.242 227.704 219.711 225.642 223.909 225.642C228.108 225.642 230.577 227.786 230.577 231.25V231.91L221.028 232.817C214.36 233.477 211.15 235.951 211.15 240.652C211.15 245.27 214.854 248.487 220.699 248.487C226.05 248.487 228.684 246.012 229.836 243.703H230.577V247.744H235.434V231.415C235.434 225.23 230.989 221.188 223.992 221.188ZM230.577 236.281C230.577 240.734 227.614 244.363 221.605 244.363C218.147 244.363 216.254 242.878 216.254 240.487C216.254 237.848 218.641 236.941 221.605 236.693L230.577 235.868V236.281Z" fill="white"/>
<path d="M278.405 229.601V228.941C282.109 227.951 284.497 225.065 284.497 220.776C284.497 214.426 279.969 210.88 273.63 210.88H258.401V247.744H273.713C280.051 247.744 284.579 244.033 284.579 237.765C284.579 233.477 281.862 230.59 278.405 229.601ZM263.67 215.745H273.137C276.841 215.745 279.475 217.89 279.475 221.188C279.475 224.735 277.088 226.797 273.301 226.797H263.752V215.745H263.67ZM273.219 242.961H263.67V231.745H273.301C277.088 231.745 279.475 233.889 279.475 237.435C279.558 240.817 276.923 242.961 273.219 242.961Z" fill="white"/>
<path d="M301.701 221.106C294.21 221.106 288.86 227.044 288.86 234.631C288.86 242.466 294.293 248.487 302.36 248.487C308.534 248.487 311.827 245.023 313.802 241.889L309.686 239.497C308.287 242.219 306.147 244.116 302.36 244.116C297.75 244.116 294.457 241.229 294.128 236.611H314.461V234.137C314.379 226.714 309.275 221.106 301.701 221.106ZM294.046 232.652C294.375 228.034 297.174 225.395 301.701 225.395C306.229 225.395 309.028 228.199 309.193 232.652H294.046Z" fill="white"/>
<path d="M339.815 225.972H339.074C337.675 223.58 335.288 221.188 330.266 221.188C323.516 221.188 318.165 226.632 318.165 234.549C318.165 242.384 323.516 247.909 330.266 247.909C335.288 247.909 337.675 245.518 339.074 243.126H339.733V246.755C339.733 252.115 336.44 254.672 331.666 254.672C327.138 254.672 324.422 252.115 323.022 249.311L318.577 251.868C321.129 255.579 325.08 259.043 331.995 259.043C339.733 259.043 344.672 253.93 344.672 247.002V221.931H339.815V225.972ZM331.501 243.456C326.562 243.456 323.104 240.322 323.104 234.549C323.104 228.776 326.562 225.642 331.501 225.642C336.523 225.642 339.733 229.023 339.733 234.549C339.733 240.074 336.605 243.456 331.501 243.456Z" fill="white"/>
<path d="M371.097 235.456C371.097 240.817 368.133 243.868 363.276 243.868C359.078 243.868 356.609 241.559 356.609 237.105V222.013H351.669V237.518C351.669 244.61 356.279 248.239 361.712 248.239C366.816 248.239 369.203 245.847 370.356 243.456H371.097V247.827H375.954V222.013H371.015V235.456H371.097Z" fill="white"/>
<path d="M411.434 221.518C407.235 221.518 405.013 223.663 403.942 225.807H403.202C401.967 223.415 399.744 221.518 396.04 221.518C392.582 221.518 390.277 223.085 388.96 225.312H388.219V221.931H383.363V247.744H388.302V231.58C388.302 227.704 390.854 225.642 394.229 225.642C397.192 225.642 399.25 227.291 399.25 230.343V247.662H404.189V231.497C404.189 227.621 406.577 225.56 409.787 225.56C412.833 225.56 415.138 227.209 415.138 230.26V247.579H420.077V230.095C420.159 224.817 415.961 221.518 411.434 221.518Z" fill="white"/>
<path d="M137.721 263.579L126.196 300.444H131.794L134.51 291.619H149.328L152.044 300.444H157.642L146.117 263.579H137.721ZM135.91 286.753L141.59 268.197H142.248L147.928 286.753H135.91Z" fill="white"/>
<path d="M176.493 274.218C171.389 274.218 169.002 276.609 167.85 279.001H167.109V274.63H162.17V300.444H167.109V287.001C167.109 281.64 170.072 278.589 174.929 278.589C179.128 278.589 181.597 280.898 181.597 285.351V300.444H186.536V284.856C186.536 277.846 181.926 274.218 176.493 274.218Z" fill="white"/>
<path d="M218.229 295.33H217.488L212.796 274.63H205.552L200.86 295.33H200.119L196.085 274.63H190.899L196.662 300.526H204.07L208.845 279.826H209.586L214.278 300.526H221.687L227.449 274.63H222.263L218.229 295.33Z" fill="white"/>
<path d="M243.913 273.97C237.575 273.97 233.459 277.516 231.648 281.475L235.928 283.454C237.163 280.485 239.633 278.424 243.831 278.424C248.029 278.424 250.499 280.568 250.499 284.032V284.692L240.95 285.599C234.282 286.258 231.071 288.733 231.071 293.433C231.071 298.052 234.776 301.268 240.62 301.268C245.971 301.268 248.605 298.794 249.758 296.485H250.499V300.526H255.356V284.197C255.273 278.011 250.828 273.97 243.913 273.97ZM250.416 288.98C250.416 293.433 247.453 297.062 241.444 297.062C237.986 297.062 236.093 295.578 236.093 293.186C236.093 290.547 238.48 289.64 241.444 289.392L250.416 288.568V288.98Z" fill="white"/>
<path d="M267.786 278.919H267.045V274.63H262.27V300.444H267.209V285.351C267.209 281.475 269.185 279.331 272.889 279.331H277.417V274.465H274.454C270.831 274.548 268.691 276.115 267.786 278.919Z" fill="white"/>
<path d="M301.207 288.155C301.207 293.516 298.244 296.567 293.387 296.567C289.189 296.567 286.719 294.258 286.719 289.805V274.63H281.78V290.217C281.78 297.31 286.39 300.938 291.823 300.938C296.927 300.938 299.314 298.547 300.467 296.155H301.207V300.526H306.064V274.63H301.125V288.155H301.207Z" fill="white"/>
<path d="M318.412 263.579H313.473V300.444H318.412V263.579Z" fill="white"/>
<path d="M362.947 279.578H346.977V263.579H341.709V300.526H346.977V284.444H362.947V300.526H368.216V263.579H362.947V279.578Z" fill="white"/>
<path d="M387.149 273.97C380.811 273.97 376.695 277.516 374.884 281.475L379.164 283.454C380.399 280.485 382.869 278.424 387.067 278.424C391.265 278.424 393.735 280.568 393.735 284.032V284.692L384.186 285.599C377.518 286.258 374.307 288.733 374.307 293.433C374.307 298.052 378.012 301.268 383.856 301.268C389.207 301.268 391.841 298.794 392.994 296.485H393.735V300.526H398.592V284.197C398.509 278.011 394.064 273.97 387.149 273.97ZM393.652 288.98C393.652 293.433 390.689 297.062 384.68 297.062C381.222 297.062 379.329 295.578 379.329 293.186C379.329 290.547 381.716 289.64 384.68 289.392L393.652 288.568V288.98Z" fill="white"/>
<path d="M425.592 278.754H424.852C423.452 276.362 421.065 273.97 416.043 273.97C409.293 273.97 403.942 279.578 403.942 287.66C403.942 295.743 409.293 301.351 416.043 301.351C421.065 301.351 423.452 298.959 424.852 296.567H425.51V311.165H430.449V274.63H425.592V278.754ZM417.278 296.815C412.339 296.815 408.882 293.516 408.882 287.578C408.882 281.64 412.339 278.341 417.278 278.341C422.3 278.341 425.51 281.887 425.51 287.578C425.51 293.269 422.3 296.815 417.278 296.815Z" fill="white"/>
<path d="M456.874 288.155C456.874 293.516 453.91 296.567 449.054 296.567C444.855 296.567 442.386 294.258 442.386 289.805V274.63H437.447V290.217C437.447 297.31 442.056 300.938 447.489 300.938C452.593 300.938 454.981 298.547 456.133 296.155H456.874V300.526H461.731V274.63H456.792V288.155H456.874Z" fill="white"/>
<path d="M492.93 286.918C492.93 279.413 487.908 273.805 480.335 273.805C472.844 273.805 467.493 279.743 467.493 287.331C467.493 295.165 472.926 301.186 480.994 301.186C487.168 301.186 490.46 297.722 492.436 294.588L488.32 292.196C486.921 294.918 484.78 296.815 480.994 296.815C476.384 296.815 473.091 293.928 472.762 289.31H493.095V286.918H492.93ZM472.597 285.351C472.926 280.733 475.725 278.094 480.253 278.094C484.78 278.094 487.579 280.898 487.744 285.351H472.597Z" fill="white"/>
</g>
<defs>
<clipPath id="clip0_115_1791">
<rect width="494" height="311" fill="white"/>
</clipPath>
</defs>
</svg>
