<svg width="795" height="955" viewBox="0 0 795 955" fill="none" xmlns="http://www.w3.org/2000/svg">
<path d="M706.046 265.705H584.495V318.661H584.61H584.495H542.027V371.617H542.142H494.968V424.573H607.107H689.174V371.617H689.116H689.174H742.087V318.661H742.029H795V265.705H706.046Z" fill="#97D9EA"/>
<path d="M481.196 318.66H481.139L481.196 318.603H521.311V265.647H563.32V212.691H600.853V159.735V106.836V106.778V53.8797V0.923584H536.003V53.8797H504.496V106.778H439.646V159.735V212.691V265.647H439.703H439.646V318.603L439.703 318.66H439.646V371.617H481.196V318.66Z" fill="#97D9EA"/>
<path d="M231.954 265.647H274.021H273.964V318.603H314.136V318.66V371.617H355.629V318.66H355.571L355.629 318.603V265.647H355.571H355.629V212.691V159.735V106.778H290.836V53.8797H259.272V0.923584H194.479V53.8797V106.778V106.836V159.735V212.691H231.954V265.647Z" fill="#97D9EA"/>
<path d="M53.1846 318.661V371.617H106.155V424.573H188.165H300.304V371.617H253.187H253.244V318.661H210.776V265.705H89.2252H0.271484V318.661H53.242H53.1846Z" fill="#97D9EA"/>
<path d="M210.776 636.34H210.719H210.776H253.244V583.384H253.129L253.244 583.327H300.304V530.37H188.165H106.155V583.327L106.212 583.384H53.1846V636.34H53.2994H0.271484V689.296H89.2252H210.776V636.34Z" fill="#97D9EA"/>
<path d="M314.136 636.339H273.964V689.296L274.021 689.353H231.954V742.252H194.479V795.208V848.164V901.12V954.076H259.272V901.12H290.836V848.164H355.629V795.208V742.252V689.353H355.571L355.629 689.296V636.339H355.514H355.629V583.383H314.136V636.339Z" fill="#97D9EA"/>
<path d="M563.32 689.353H521.254L521.311 689.296V636.339H481.196V583.383H439.646V636.339H439.761H439.646V689.296L439.703 689.353H439.646V742.252V795.208V848.164H504.496V901.12H536.003V954.076H600.853V901.12V848.164V795.208V742.252H563.32V689.353Z" fill="#97D9EA"/>
<path d="M742.087 636.34V583.384H689.174L689.059 583.327H689.174V530.37H607.107H494.968V583.327H542.142L542.027 583.384V636.34H584.495H584.553H584.495V689.296H706.046H795V636.34H741.972H742.087Z" fill="#97D9EA"/>
<path d="M469.832 451.454H424.896V398.497H359.644V451.454H359.702H314.766V504.41H359.644V557.366H424.896V504.41H469.832V451.454Z" fill="#97D9EA"/>
</svg>
