<svg width="190" height="100" viewBox="0 0 190 100" fill="none" xmlns="http://www.w3.org/2000/svg">
<g clip-path="url(#clip0_8_993)">
<path d="M17.0357 18.0403C17.0357 23.4006 14.1964 26.2824 8.74962 26.2824C3.24489 26.2824 0 23.3429 0 18.0403V15.9078H3.70845V18.0403C3.70845 20.9798 5.27295 22.8818 8.69167 22.8818C12.1104 22.8818 13.3272 20.9798 13.3272 18.0403V0H17.0357V18.0403Z" fill="white"/>
<path d="M25.9012 0V17.1182C25.9012 20.9222 27.9292 22.9395 31.9274 22.9395C35.9256 22.9395 37.9536 20.9222 37.9536 17.1182V0H41.6621V17.1182C41.6621 23.1124 38.1275 26.3401 31.9854 26.3401C25.8432 26.3401 22.3086 23.1124 22.3086 17.1182V0H25.9012Z" fill="white"/>
<path d="M53.7164 0L61.7706 22.536H62.2342V0H65.9426V25.7637H59.0473L51.0509 3.2853H50.5874V25.7637H46.8789V0H53.7164Z" fill="white"/>
<path d="M87.8456 0V3.40058H74.9819V11.1816H86.8605V14.5821H74.9819V22.4207H88.0194V25.8213H71.2734V0H87.8456Z" fill="white"/>
<path d="M90.2211 36.8301V62.5938H86.5127V40.2883H86.0491L81.2397 48.1269H77.1836L84.4267 36.8301H90.2211Z" fill="white"/>
<path d="M112.586 36.8301V40.1154L104.937 46.7437V47.2048H105.922C109.862 47.2048 113.049 50.1442 113.049 54.6976C113.049 59.712 108.877 63.1125 103.778 63.1125C98.1577 63.1125 94.1016 59.5967 94.1016 54.467V52.7379H97.81V54.2365C97.81 57.5218 100.07 59.712 103.72 59.712C107.139 59.712 109.341 57.5794 109.341 54.5823C109.341 51.7004 107.081 49.9137 104.358 49.9137H100.302V46.5131L107.487 40.1154H95.0866V36.7148H112.586V36.8301Z" fill="white"/>
<path d="M128.754 51.7578H139.705V54.9278H128.754V51.7578Z" fill="white"/>
<path d="M167.053 36.8301V62.5938H163.345V40.2883H162.881L158.072 48.1269H154.016L161.259 36.8301H167.053Z" fill="white"/>
<path d="M180.67 63.1703C175.455 63.1703 171.457 59.5968 171.457 54.2942V45.2452C171.457 40.0003 175.397 36.3115 180.786 36.3115C186.059 36.3115 189.594 39.3663 189.594 44.3231H185.885C185.885 41.4988 184.321 39.6545 180.786 39.6545C177.251 39.6545 175.165 41.9023 175.165 45.13V48.5882H175.629C176.498 47.2049 178.179 45.4182 181.829 45.4182C186.175 45.4182 189.999 48.8187 189.999 54.1213C189.999 59.5392 186.059 63.1703 180.67 63.1703ZM175.223 54.2366C175.223 57.5219 177.483 59.7697 180.728 59.7697C184.089 59.7697 186.349 57.5219 186.349 54.2366C186.349 50.9513 184.089 48.7611 180.728 48.7611C177.483 48.7611 175.223 50.9513 175.223 54.2366Z" fill="white"/>
<path d="M10.4873 73.1992C15.5864 73.1992 19.3528 76.5422 19.3528 81.4989C19.3528 87.0897 15.2387 89.0494 10.2555 90.7208C6.60499 91.9312 4.75077 92.7958 4.75077 95.7352V96.0811H18.9472V99.4816H0.984375V96.1387C0.984375 91.2972 3.99749 89.2799 8.69099 87.7237C12.9789 86.3404 15.6443 84.9571 15.6443 81.326C15.6443 78.2713 13.3845 76.5422 10.4873 76.5422C6.77882 76.5422 4.69282 78.5594 4.69282 82.1329V82.9398H0.984375V81.9024C0.984375 76.5998 4.80871 73.1992 10.4873 73.1992Z" fill="white"/>
<path d="M32.2744 73.1992C38.1268 73.1992 41.9511 77.1185 41.9511 83.7468V89.5105C41.9511 96.1387 38.2427 100.058 32.2744 100.058C26.2482 100.058 22.5977 96.1387 22.5977 89.5105V83.7468C22.5977 77.0609 26.3061 73.1992 32.2744 73.1992ZM26.3061 89.5105C26.3061 94.0638 28.3342 96.5998 32.3323 96.5998C36.3305 96.5998 38.3586 94.1214 38.3586 89.5105V83.6315C38.3586 79.0782 36.3305 76.5422 32.3323 76.5422C28.3342 76.5422 26.3061 79.0205 26.3061 83.6315V89.5105Z" fill="white"/>
<path d="M54.9912 73.1992C60.0903 73.1992 63.8567 76.5422 63.8567 81.4989C63.8567 87.0897 59.7426 89.0494 54.7594 90.7208C51.1089 91.9312 49.2547 92.7958 49.2547 95.7352V96.0811H63.4511V99.4816H45.4883V96.1387C45.4883 91.2972 48.5014 89.2799 53.1949 87.7237C57.4828 86.3404 60.1482 84.9571 60.1482 81.326C60.1482 78.2713 57.8884 76.5422 54.9912 76.5422C51.2827 76.5422 49.1967 78.5594 49.1967 82.1329V82.9398H45.4883V81.9024C45.4883 76.5998 49.3126 73.1992 54.9912 73.1992Z" fill="white"/>
<path d="M81.3534 73.6602V91.0665H85.6992V94.4671H81.3534V99.4815H77.6449V94.4671H64.7812V91.2394L75.0954 73.7178H81.3534V73.6602ZM68.8374 91.0665H77.6449V76.5996H77.1814L68.8374 91.0665Z" fill="white"/>
</g>
<defs>
<clipPath id="clip0_8_993">
<rect width="190" height="100" fill="white"/>
</clipPath>
</defs>
</svg>
