<svg width="158" height="97" viewBox="0 0 158 97" fill="none" xmlns="http://www.w3.org/2000/svg">
<path d="M76.6967 0.50293L84.4717 25.4937H80.6953L78.8626 19.5116H68.8661L67.0334 25.4937H63.3125L71.0875 0.50293H76.6967ZM77.974 16.213L74.142 3.63377H73.6977L69.8658 16.213H77.974Z" fill="white"/>
<path d="M91.2457 0.503174V22.2513H103.464V25.5499H87.6914V0.503174H91.2457Z" fill="white"/>
<path d="M115.515 0C121.402 0 125.178 3.80173 125.178 10.2311V15.8219C125.178 22.2513 121.568 26.053 115.515 26.053C109.462 26.053 105.852 22.2513 105.852 15.8219V10.2311C105.852 3.80173 109.462 0 115.515 0ZM109.406 15.8778C109.406 20.2945 111.405 22.7545 115.515 22.7545C119.625 22.7545 121.624 20.3504 121.624 15.8778V10.1752C121.624 5.7585 119.625 3.29856 115.515 3.29856C111.405 3.29856 109.406 5.70259 109.406 10.1752V15.8778Z" fill="white"/>
<path d="M139.228 10.5663L149.78 25.5496H145.504L136.618 13.0263L132.953 16.4366V25.5496H129.398V0.50293H132.953V11.5168H133.397L145.06 0.50293H149.947L139.228 10.5663Z" fill="white"/>
<path d="M156.054 0.50293V25.4937H152.5V0.50293H156.054Z" fill="white"/>
<path d="M19.6042 36.2285V39.5271H11.5515V61.2752H7.99719V39.5271H0V36.2285H19.6042Z" fill="white"/>
<path d="M38.7622 36.2285V39.5271H26.4332V47.0746H37.7626V50.3732H26.4332V57.9766H38.9288V61.2752H22.8789V36.2285H38.7622Z" fill="white"/>
<path d="M57.3706 53.7276C57.3706 58.9271 54.6493 61.7225 49.4289 61.7225C44.153 61.7225 41.043 58.8712 41.043 53.7276V51.6591H44.5973V53.7276C44.5973 56.5789 46.0967 58.4239 49.3734 58.4239C52.65 58.4239 53.8163 56.5789 53.8163 53.7276V36.2285H57.3706V53.7276Z" fill="white"/>
<path d="M61.5352 45.9557C61.5352 39.4704 65.145 35.7246 71.1984 35.7246C77.0852 35.7246 80.3063 39.3586 80.3063 44.8935V45.2289H76.752V44.8935C76.752 41.3713 75.1415 39.0232 71.1984 39.0232C67.2554 39.0232 65.0339 41.4272 65.0339 45.788V51.6583C65.0339 56.0191 67.2554 58.4232 71.1984 58.4232C75.1415 58.4232 76.752 56.075 76.752 52.5529V52.1056H70.0322V48.8629H80.3063V52.5529C80.3063 58.1436 77.0852 61.7217 71.1984 61.7217C65.145 61.7217 61.5352 58.0318 61.5352 51.4906V45.9557Z" fill="white"/>
<path d="M95.5756 36.2285L103.351 61.2193H99.5742L97.7415 55.2372H87.745L85.9123 61.2193H82.1914L89.9664 36.2285H95.5756ZM96.7974 51.9386L92.9654 39.3594H92.5211L88.6891 51.9386H96.7974Z" fill="white"/>
<path d="M114.792 35.7246C120.679 35.7246 124.455 39.5263 124.455 45.9557V51.5465C124.455 57.9759 120.846 61.7776 114.792 61.7776C108.739 61.7776 105.129 57.9759 105.129 51.5465V45.9557C105.129 39.5263 108.794 35.7246 114.792 35.7246ZM108.683 51.6024C108.683 56.0191 110.683 58.4791 114.792 58.4791C118.902 58.4791 120.901 56.075 120.901 51.6024V45.8998C120.901 41.4831 118.902 39.0232 114.792 39.0232C110.683 39.0232 108.683 41.4272 108.683 45.8998V51.6024Z" fill="white"/>
<path d="M135.229 36.2285L142.949 58.0885H143.393V36.2285H146.947V61.2193H140.338L132.674 39.4153H132.23V61.2193H128.676V36.2285H135.229Z" fill="white"/>
<path d="M154.058 56.1875C155.669 56.1875 156.835 57.2497 156.835 58.927V62.8405C156.835 64.5178 155.613 65.7477 153.947 65.7477H151.448V63.7351H153.669C154.336 63.7351 154.613 63.3996 154.613 62.6728V61.5546C154.447 61.6106 154.28 61.6106 154.003 61.6106C152.559 61.6106 151.281 60.6042 151.281 58.927C151.281 57.2497 152.559 56.1875 154.058 56.1875Z" fill="white"/>
<path d="M55.871 71.9531C62.2021 71.9531 65.9786 75.1958 65.9786 81.6811V87.2719C65.9786 93.7572 62.2021 96.9998 55.871 96.9998H48.207V72.009H55.871V71.9531ZM51.7613 93.7013H55.8155C60.1473 93.7013 62.4243 91.7445 62.4243 87.216V81.7929C62.4243 77.2085 60.1473 75.3076 55.8155 75.3076H51.7613V93.7013Z" fill="white"/>
<path d="M73.7535 71.9531V82.7992H84.5275V71.9531H88.0818V96.9439H84.5275V86.0978H73.7535V96.9998H70.1992V72.009H73.7535V71.9531Z" fill="white"/>
<path d="M104.686 71.9531L112.461 96.9439H108.684L106.852 90.9618H96.8552L95.0225 96.9439H91.2461L99.0211 71.9531H104.686ZM105.908 87.7191L102.076 75.1399H101.631L97.7993 87.7191H105.908Z" fill="white"/>
<path d="M125.455 82.0163L136.007 96.9996H131.73L122.845 84.4762L119.179 87.8866V96.9996H115.625V72.0088H119.179V83.0226H119.624L131.286 72.0088H136.173L125.455 82.0163Z" fill="white"/>
<path d="M150.225 71.9534L158 96.9441H154.224L152.391 90.962H142.394L140.562 96.9441H136.785L144.56 71.9534H150.225ZM151.447 87.7194L147.615 75.1401H147.171L143.339 87.7194H151.447Z" fill="white"/>
</svg>
