<svg width="430" height="355" viewBox="0 0 430 355" fill="none" xmlns="http://www.w3.org/2000/svg">
<path d="M0 80.5841L27.7421 0H38.6016L66.3437 80.5841H57.7656L31.3924 4.65433H34.6776L8.57815 80.5841H0ZM12.3197 53.3881H53.9328V61.1454H12.3197V53.3881Z" fill="white"/>
<path d="M76.4727 80.5841V0H107.591C108.413 0 109.234 -2.22821e-05 110.238 0.0912395C111.242 0.182501 112.245 0.273785 113.249 0.456309C117.447 1.09514 121.006 2.55532 123.926 4.83686C126.846 7.1184 129.037 10.0388 130.588 13.5067C132.139 16.9747 132.869 20.8077 132.869 25.0057C132.869 31.1202 131.227 36.3222 128.033 40.794C124.839 45.2658 120.276 48.0949 114.253 49.2813L111.424 49.9202H84.6858V80.5841H76.4727ZM84.6858 42.1629H107.317C107.956 42.1629 108.778 42.1629 109.69 42.0716C110.603 41.9804 111.424 41.8891 112.337 41.7066C115.074 41.0678 117.356 39.9726 119.09 38.3299C120.823 36.6872 122.192 34.6795 123.014 32.3066C123.926 30.0251 124.291 27.561 124.291 25.097C124.291 22.6329 123.835 20.1688 123.014 17.8873C122.101 15.5145 120.823 13.598 119.09 11.864C117.356 10.2213 115.074 9.0349 112.337 8.48733C111.515 8.30481 110.603 8.21355 109.69 8.12229C108.778 8.03103 108.048 8.03102 107.317 8.03102H84.6858V42.1629ZM125.204 80.5841L109.325 47.8211L117.173 44.8095L134.603 80.5841H125.204Z" fill="white"/>
<path d="M146.922 80.5847V0.0917969H155.226V38.148L191.911 0.0917969H202.406L164.899 38.9693L205.509 80.5847H194.74L155.226 40.3382V80.5847H146.922Z" fill="white"/>
<path d="M207.789 80.5841L235.531 0H246.482L274.224 80.5841H265.646L239.273 4.65433H242.558L216.276 80.5841H207.789ZM220.109 53.3881H261.722V61.1454H220.109V53.3881Z" fill="white"/>
<path d="M17.7961 101.211V122.931H47.7284V135.525H17.7961V175.315H4.47266V88.5254H62.6945V101.211H17.7961Z" fill="white"/>
<path d="M126.666 110.244V175.313H113.343V142.733C113.343 130.778 103.305 121.013 90.8938 121.013C78.4828 121.013 68.4446 130.686 68.4446 142.733C68.4446 154.688 75.1063 164.453 83.4107 164.453C91.7151 164.453 98.3768 156.331 98.3768 146.383H111.7C111.7 163.358 99.0156 177.139 83.4107 177.139C67.8058 177.139 55.1211 161.715 55.1211 142.824C55.1211 123.842 71.091 108.51 90.8938 108.51C96.5517 108.51 101.845 109.787 106.59 111.978C109.693 113.438 112.065 116.084 113.434 119.37L115.807 125.119L117.449 124.298L114.438 116.997C113.708 115.172 113.252 113.164 113.252 111.156V110.244H126.666Z" fill="white"/>
<path d="M192.185 156.332C192.185 167.831 178.77 177.14 162.253 177.14C145.735 177.14 132.32 167.831 132.32 156.332C132.32 156.059 132.32 155.694 132.32 155.42H145.735C145.644 155.694 145.644 156.059 145.644 156.332C145.644 160.804 153.127 164.455 162.253 164.455C171.469 164.455 178.861 160.804 178.861 156.332C178.861 151.861 170.557 150.035 162.253 148.21C154.039 146.385 146.374 145.655 141.172 141.548C136.701 137.989 133.963 133.334 133.963 128.315C133.963 117.364 146.648 108.42 162.253 108.42C177.857 108.42 190.542 117.364 190.542 128.315H177.219C177.219 124.299 170.557 121.105 162.253 121.105C153.948 121.105 147.286 124.391 147.286 128.315C147.286 132.33 154.131 133.791 162.253 135.525C170.557 137.35 177.949 137.806 183.333 141.548C188.808 145.381 192.185 150.583 192.185 156.332Z" fill="white"/>
<path d="M262 139.265V175.314H248.676V139.174C248.676 129.227 242.015 121.104 233.71 121.104C221.299 121.104 211.261 130.778 211.261 142.825V175.405H197.938V88.6152H211.261V111.157C211.261 113.165 210.896 115.172 210.075 116.998L207.063 124.299L208.706 125.12L211.078 119.37C212.447 116.085 214.82 113.53 217.74 112.07C222.577 109.788 228.052 108.419 233.801 108.51C249.406 108.51 262 122.382 262 139.265Z" fill="white"/>
<path d="M269.297 98.8359C269.297 95.1855 272.308 92.1738 275.959 92.1738C279.609 92.1738 282.62 95.1855 282.62 98.8359C282.62 102.486 279.609 105.498 275.959 105.498C272.217 105.498 269.297 102.486 269.297 98.8359ZM269.297 110.244H282.62V175.313H269.297V110.244Z" fill="white"/>
<path d="M359.553 142.824C359.553 161.807 343.583 177.139 323.781 177.139C303.978 177.139 288.008 161.807 288.008 142.824C288.008 123.842 303.978 108.51 323.781 108.51C343.583 108.51 359.553 123.842 359.553 142.824ZM346.321 142.824C346.321 130.869 336.283 121.104 323.872 121.104C311.461 121.104 301.423 130.778 301.423 142.824C301.423 154.779 311.461 164.544 323.872 164.544C336.283 164.544 346.321 154.779 346.321 142.824Z" fill="white"/>
<path d="M429.179 139.264V175.312H415.856V139.173C415.856 129.225 409.194 121.103 400.89 121.103C388.479 121.103 378.441 130.777 378.441 142.823V175.404H365.117V110.334H378.441V111.247C378.441 113.254 378.076 115.262 377.254 117.087L374.243 124.388L375.885 125.21L378.258 119.46C379.627 116.175 382 113.619 384.92 112.159C389.757 109.878 395.232 108.509 400.981 108.6C416.586 108.509 429.179 122.38 429.179 139.264Z" fill="white"/>
<path d="M338.832 210.176V210.906H336.003V210.358C336.003 208.259 334.543 207.256 332.444 207.256C330.619 207.256 329.342 208.168 329.342 209.537C329.342 211.18 330.619 211.636 332.901 212.092L333.54 212.275C336.916 213.005 339.015 214.374 339.015 217.477C339.015 220.854 336.277 222.861 332.718 222.861C328.429 222.861 325.691 220.489 325.691 216.473V215.834H328.52V216.382C328.52 218.846 329.98 220.306 332.718 220.306C334.908 220.306 336.095 219.12 336.095 217.659C336.095 216.108 334.908 215.469 332.627 215.013L331.988 214.83C328.612 214.1 326.422 212.914 326.422 209.628C326.422 206.617 329.068 204.7 332.353 204.7C336.095 204.609 338.832 206.617 338.832 210.176Z" fill="white"/>
<path d="M344.492 204.975V216.474C344.492 218.846 345.769 220.124 348.324 220.124C350.788 220.124 352.157 218.755 352.157 216.474V204.975H355.077V216.382C355.077 220.398 352.613 222.771 348.416 222.771C344.218 222.771 341.754 220.398 341.754 216.382V204.975H344.492Z" fill="white"/>
<path d="M363.2 204.975L367.216 219.394H367.581L371.596 204.975H376.706V222.497H373.877V208.078H373.604L369.588 222.497H365.299L361.284 208.078H360.919V222.497H358.09V204.975H363.2Z" fill="white"/>
<path d="M385.009 204.975L389.115 219.394H389.389L393.496 204.975H398.515V222.497H395.686V208.078H395.412L391.397 222.497H387.108L383.092 208.078H382.819V222.497H379.898V204.975H385.009Z" fill="white"/>
<path d="M413.117 204.975V207.621H404.721V212.367H412.387V215.013H404.721V219.85H413.208V222.497H401.801V204.975H413.117Z" fill="white"/>
<path d="M424.71 215.47L428.452 222.497H425.258L421.79 215.653H418.596V222.497H415.676V205.066H423.159C426.444 205.066 428.634 207.165 428.634 210.36C428.634 213.006 427.083 214.923 424.71 215.47ZM418.596 213.006H422.885C424.71 213.006 425.805 212.002 425.805 210.36C425.805 208.626 424.71 207.622 422.885 207.622H418.596V213.006Z" fill="white"/>
<path d="M328.339 236.186C327.061 236.186 326.148 235.274 326.148 234.087V231.076C326.148 229.889 327.061 228.977 328.247 228.977H330.346V230.528H328.612C328.156 230.528 327.882 230.802 327.882 231.258V232.079C327.974 232.079 328.156 231.988 328.339 231.988C329.525 231.988 330.438 232.81 330.438 233.996C330.438 235.274 329.525 236.186 328.339 236.186Z" fill="white"/>
<path d="M339.106 228.977C342.482 228.977 345.22 231.167 345.22 234.726C345.22 238.285 342.756 239.745 339.288 240.841C336.824 241.571 335.547 242.118 335.547 243.944V244.217H345.037V246.864H332.626V244.217C332.626 241.023 334.817 239.563 337.919 238.559C340.657 237.738 342.3 236.825 342.3 234.635C342.3 232.718 340.931 231.623 339.106 231.623C336.915 231.623 335.455 232.81 335.455 235.182V235.73H332.535V235.091C332.626 231.167 335.364 228.977 339.106 228.977Z" fill="white"/>
<path d="M356.996 229.342V240.75H359.916V243.396H356.996V246.773H354.076V243.396H345.406V240.841L352.251 229.342H356.996ZM348.509 240.75H354.076V231.715H353.802L348.509 240.75Z" fill="white"/>
<path d="M115.072 183.254L90.7065 270.044H70.995L59.0403 214.009C58.6753 212.64 58.4928 211.18 58.4928 209.811V206.252H56.7589V209.811C56.7589 211.271 56.5764 212.64 56.2114 214.009L44.2567 270.044H24.5453L0.179688 183.254H13.9595L32.9409 250.879C33.3059 252.248 33.4884 253.708 33.4884 255.077V261.009H35.2223V255.077C35.2223 253.617 35.4048 252.248 35.7699 250.879L51.1922 183.254H63.877L79.2994 250.879C79.6644 252.248 79.8469 253.708 79.8469 255.077V261.009H81.5808V255.077C81.5808 253.617 81.7633 252.248 82.1283 250.879L101.11 183.254H115.072Z" fill="white"/>
<path d="M178.863 242.939H121.827C124.291 252.339 133.143 259.184 143.546 259.184C150.208 259.184 156.14 256.355 160.246 251.974H175.942C170.284 263.747 157.873 271.869 143.546 271.869C123.835 271.869 107.773 256.446 107.773 237.555C107.773 218.572 123.743 203.24 143.546 203.24C161.341 203.24 176.125 215.743 178.863 232.17C179.136 233.904 179.319 235.729 179.319 237.555C179.319 239.38 179.136 241.205 178.863 242.939ZM126.207 232.17H165.265C162.801 222.861 153.949 215.926 143.546 215.926C133.69 215.926 125.386 222.04 122.283 230.527C121.918 231.44 121.553 232.353 121.006 233.265L118.633 237.098L120.093 238.193L122.466 234.36C123.378 232.9 124.747 232.17 126.207 232.17Z" fill="white"/>
<path d="M253.146 242.939H196.111C198.575 252.339 207.427 259.184 217.83 259.184C224.492 259.184 230.423 256.355 234.53 251.974H250.317C244.659 263.747 232.248 271.869 217.921 271.869C198.21 271.869 182.148 256.446 182.148 237.555C182.148 218.572 198.118 203.24 217.921 203.24C235.716 203.24 250.5 215.743 253.238 232.17C253.511 233.904 253.694 235.729 253.694 237.555C253.603 239.38 253.511 241.205 253.146 242.939ZM200.491 232.17H239.549C237.085 222.861 228.233 215.926 217.83 215.926C207.974 215.926 199.67 222.04 196.567 230.527C196.202 231.44 195.837 232.353 195.289 233.265L192.917 237.098L194.377 238.193L196.75 234.36C197.662 232.9 199.031 232.17 200.491 232.17Z" fill="white"/>
<path d="M318.119 270.044H302.331L276.323 239.289L272.308 242.939V270.044H258.984V183.254H272.308V220.306C272.308 222.314 271.943 224.322 271.122 226.147L268.11 233.448L269.753 234.269L272.217 228.337C273.038 226.329 274.224 224.595 275.776 223.135L295.578 204.974H313.647L285.175 231.075L318.119 270.044Z" fill="white"/>
<path d="M81.31 354.279V322.611H76.0171L65.7051 340.316L55.5756 322.611H50.1914V354.279H55.8493V334.293L64.0624 348.712H67.4389L75.6521 334.293V354.279H81.31Z" fill="white"/>
<path d="M93.99 322.611H88.332V354.279H93.99V322.611Z" fill="white"/>
<path d="M125.569 354.279V322.611H119.911V344.058L106.588 322.611H100.93V354.279H106.588V332.833L119.911 354.279H125.569Z" fill="white"/>
<path d="M138.162 322.611H132.504V354.279H138.162V322.611Z" fill="white"/>
<path d="M155.592 335.387C150.664 333.835 149.204 332.832 149.204 331.006C149.204 328.999 151.212 327.721 154.224 327.721H154.406C156.596 327.812 159.243 328.725 159.881 330.733L164.536 328.999C163.532 324.709 158.604 322.428 154.315 322.428C146.832 322.428 143.546 326.9 143.546 331.28C143.546 335.752 146.467 338.49 153.585 340.589C158.786 342.14 160.52 343.053 160.52 345.243C160.52 347.525 158.148 348.985 154.497 348.985C151.121 348.985 148.383 347.525 147.653 345.152L142.816 347.068C143.82 351.266 149.113 354.369 155.136 354.369C163.349 354.369 166.269 349.532 166.269 344.969C166.178 339.129 161.433 337.212 155.592 335.387Z" fill="white"/>
<path d="M192.459 347.068C193.098 345.608 193.372 344.057 193.372 342.414V334.474C193.372 332.832 193.007 331.28 192.459 329.82C191.82 328.36 190.908 327.082 189.904 325.987C188.809 324.892 187.531 324.07 186.071 323.432C184.611 322.793 183.06 322.428 181.417 322.428C179.774 322.428 178.223 322.793 176.763 323.432C175.303 324.07 174.025 324.892 172.93 325.987C171.835 327.082 171.014 328.36 170.375 329.82C169.736 331.28 169.371 332.832 169.371 334.474V342.505C169.371 344.148 169.736 345.699 170.375 347.16C171.014 348.62 171.835 349.898 172.93 350.993C174.025 352.088 175.303 352.909 176.763 353.548C178.223 354.187 179.774 354.461 181.417 354.461C183.06 354.461 184.611 354.096 186.071 353.457C187.531 352.818 188.809 351.997 189.904 350.901C190.908 349.806 191.82 348.529 192.459 347.068ZM187.714 343.053C187.714 343.874 187.531 344.696 187.166 345.517C186.801 346.247 186.345 346.977 185.797 347.525C185.25 348.072 184.52 348.529 183.79 348.894C182.968 349.167 182.147 349.35 181.326 349.35C180.504 349.35 179.683 349.167 178.862 348.894C178.041 348.529 177.402 348.164 176.854 347.525C176.307 346.977 175.85 346.247 175.485 345.517C175.12 344.787 174.938 343.965 174.938 343.053V333.744C174.938 332.923 175.12 332.101 175.485 331.371C175.85 330.641 176.307 329.911 176.854 329.364C177.402 328.816 178.132 328.36 178.862 327.995C180.413 327.356 182.147 327.356 183.79 327.995C184.52 328.268 185.25 328.725 185.797 329.364C186.345 329.911 186.801 330.641 187.166 331.371C187.531 332.101 187.714 332.923 187.714 333.744V343.053Z" fill="white"/>
<path d="M17.6122 302.076C19.7111 302.076 21.1712 303.445 21.1712 305.544C21.1712 307.643 19.7111 309.012 17.6122 309.012H14.9658V313.301H13.1406V302.076H17.6122ZM14.9658 307.278H17.4297C18.616 307.278 19.2548 306.639 19.2548 305.544C19.2548 304.449 18.5248 303.81 17.4297 303.81H14.9658V307.278Z" fill="white"/>
<path d="M25.8214 305.18C28.1028 305.18 29.928 306.914 29.928 309.378C29.928 311.842 28.1941 313.576 25.8214 313.576C23.54 313.576 21.7148 311.842 21.7148 309.378C21.7148 306.822 23.54 305.18 25.8214 305.18ZM25.8214 311.933C27.1903 311.933 28.1941 310.929 28.1941 309.378C28.1941 307.826 27.2815 306.822 25.8214 306.822C24.4525 306.822 23.4487 307.826 23.4487 309.378C23.54 310.929 24.4525 311.933 25.8214 311.933Z" fill="white"/>
<path d="M32.4853 305.361L33.5804 311.658H33.7629L35.1317 305.361H37.5957L38.8733 311.658H39.147L40.2421 305.361H41.976L40.3334 313.301H37.7782L36.4093 307.004H36.2268L34.858 313.301H32.3028L30.6602 305.361H32.4853Z" fill="white"/>
<path d="M46.7223 305.18C49.0037 305.18 50.5551 306.822 50.5551 309.195V309.925H44.6234C44.7147 311.112 45.536 312.024 46.8136 312.024C47.9087 312.024 48.5475 311.386 48.9125 310.747L50.3726 311.568C49.8251 312.481 48.8212 313.576 46.8136 313.576C44.4409 313.576 42.707 311.751 42.707 309.378C42.707 306.914 44.3496 305.18 46.7223 305.18ZM48.73 308.556C48.6387 307.37 47.9087 306.64 46.7223 306.64C45.4447 306.64 44.7147 307.37 44.6234 308.556H48.73Z" fill="white"/>
<path d="M53.6557 306.639H53.8383C54.112 305.818 54.7508 305.361 55.8459 305.361H56.6672V307.004H55.3896C54.2945 307.004 53.6557 307.552 53.6557 308.738V313.301H51.9219V305.453H53.6557V306.639Z" fill="white"/>
<path d="M61.0505 305.18C63.3319 305.18 64.8832 306.822 64.8832 309.195V309.925H58.9515C59.0428 311.112 59.8641 312.024 61.1417 312.024C62.2368 312.024 62.8756 311.386 63.2406 310.747L64.7007 311.568C64.1532 312.481 63.1494 313.576 61.1417 313.576C58.769 313.576 57.0352 311.751 57.0352 309.378C57.1264 306.914 58.769 305.18 61.0505 305.18ZM63.1493 308.556C63.0581 307.37 62.3281 306.64 61.1417 306.64C59.8641 306.64 59.134 307.37 59.0428 308.556H63.1493Z" fill="white"/>
<path d="M74.0998 313.301H72.366V312.115H72.1834C71.7272 312.845 71.0884 313.484 69.537 313.484C67.5293 313.484 65.8867 311.75 65.8867 309.286C65.8867 306.822 67.5293 305.179 69.537 305.179C70.9971 305.179 71.7272 305.909 72.1834 306.548H72.366V302.076H74.0998V313.301ZM67.6206 309.286C67.6206 310.929 68.6244 311.932 69.9933 311.932C71.3621 311.932 72.366 310.929 72.366 309.286C72.366 307.643 71.4534 306.73 69.9933 306.73C68.6244 306.73 67.6206 307.643 67.6206 309.286Z" fill="white"/>
<path d="M82.4018 302.076V306.548H82.5844C83.0407 305.818 83.6794 305.179 85.2308 305.179C87.2385 305.179 88.8811 306.913 88.8811 309.286C88.8811 311.75 87.2385 313.484 85.2308 313.484C83.7707 313.484 83.0407 312.754 82.5844 312.115H82.4018V313.301H80.668V302.076H82.4018ZM82.4018 309.286C82.4018 310.929 83.3144 311.932 84.7745 311.932C86.1434 311.932 87.1472 311.02 87.1472 309.286C87.1472 307.643 86.1434 306.73 84.7745 306.73C83.3144 306.73 82.4018 307.734 82.4018 309.286Z" fill="white"/>
<path d="M97.9166 305.361L93.3537 316.495H91.4373L92.7149 313.575L89.4297 305.361H91.2548L93.5362 311.202H93.7187L96.0002 305.361H97.9166Z" fill="white"/>
<path d="M27.9255 342.324C27.743 342.142 27.5605 342.05 27.378 341.959C26.9217 341.777 26.4654 341.777 26.0091 341.959C25.8266 342.05 25.6441 342.142 25.4616 342.324C25.2791 342.507 25.1878 342.689 25.0966 342.872C25.0053 343.054 24.9141 343.328 24.9141 343.511V346.157C24.9141 346.431 25.0053 346.613 25.0966 346.796C25.1878 346.979 25.2791 347.161 25.4616 347.344C25.6441 347.526 25.8266 347.617 26.0091 347.709C26.1917 347.8 26.4654 347.8 26.6479 347.8C26.9217 347.8 27.1042 347.8 27.2867 347.709C27.4693 347.617 27.6518 347.526 27.8343 347.344C28.0168 347.161 28.1081 346.979 28.1993 346.796C28.2906 346.613 28.3818 346.34 28.3818 346.157V343.511C28.3818 343.237 28.2906 343.054 28.1993 342.872C28.2906 342.689 28.1081 342.507 27.9255 342.324Z" fill="white"/>
<path d="M34.8579 322.518V319.141L32.5765 316.951H24.2721L21.9907 319.141V322.518H12.5V354.368H44.3486V322.518H34.8579ZM39.147 327.72H40.6984V336.572H39.147V327.72ZM40.6984 341.957H36.4093V340.588H40.6984V341.957ZM24.2721 319.141H32.5765V322.518H24.2721V319.141ZM28.3787 336.572H26.8273V327.72H28.3787V336.572ZM19.3443 349.167C17.7016 349.167 16.2415 348.254 15.8765 347.159L17.2454 346.611C17.4279 347.25 18.2492 347.706 19.1618 347.706C20.1656 347.706 20.8044 347.25 20.8044 346.611C20.8044 345.972 20.3481 345.79 18.888 345.334C16.8803 344.695 16.059 343.965 16.059 342.778C16.059 341.592 16.9716 340.314 19.0705 340.314C20.2568 340.314 21.6257 340.953 21.8995 342.139L20.6219 342.596C20.4394 342.048 19.7093 341.774 19.0705 341.774H18.9792C18.1579 341.774 17.6104 342.139 17.6104 342.687C17.6104 343.235 18.0667 343.508 19.4355 343.873C21.0781 344.33 22.3557 344.877 22.3557 346.52C22.447 347.798 21.6257 349.167 19.3443 349.167ZM20.9869 335.021H20.0743L17.7929 331.006V336.572H16.2415V327.72H17.7017L20.5306 332.648L23.3596 327.72H24.8197V336.572H23.2683V331.006L20.9869 335.021ZM30.1126 345.881C30.1126 346.337 30.0213 346.794 29.8388 347.159C29.6563 347.524 29.3825 347.889 29.1088 348.254C28.835 348.528 28.4699 348.801 28.0137 348.984C27.6486 349.167 27.1924 349.258 26.7361 349.258C26.2798 349.258 25.8235 349.167 25.4585 348.984C25.0935 348.801 24.7284 348.528 24.3634 348.254C24.0896 347.98 23.8159 347.615 23.6333 347.159C23.4508 346.794 23.3596 346.337 23.3596 345.881V343.6C23.3596 343.143 23.4508 342.687 23.6333 342.322C23.8159 341.957 24.0896 341.592 24.3634 341.227C24.6372 340.953 25.0022 340.679 25.4585 340.497C25.8235 340.314 26.2798 340.223 26.7361 340.223C27.1924 340.223 27.6486 340.314 28.0137 340.497C28.3787 340.679 28.7437 340.953 29.1088 341.227C29.3825 341.501 29.6563 341.866 29.8388 342.322C30.0213 342.687 30.1126 343.143 30.1126 343.6V345.881ZM30.2951 327.72H31.8465L35.588 333.743V327.72H37.1393V336.572H35.588L31.8465 330.549V336.572H30.2951V327.72ZM32.8503 340.314C33.3978 340.314 33.8541 340.77 33.8541 341.409C33.8541 341.957 33.3978 342.504 32.8503 342.504C32.3027 342.504 31.8465 342.048 31.8465 341.409C31.8465 340.862 32.3027 340.314 32.8503 340.314ZM36.318 349.167C33.8541 349.167 31.8465 347.068 31.8465 344.421C31.8465 344.33 31.8465 344.33 31.8465 344.238V344.147H33.124C33.124 344.238 33.124 344.33 33.124 344.33C33.124 346.246 34.5842 347.706 36.318 347.706C38.1432 347.706 39.512 346.155 39.512 344.33C39.512 344.238 39.512 344.238 39.512 344.238V344.147H40.7896V344.238V344.33C40.7896 347.068 38.782 349.167 36.318 349.167Z" fill="white"/>
</svg>
