<svg width="467" height="642" viewBox="0 0 467 642" fill="none" xmlns="http://www.w3.org/2000/svg">
<path d="M373.209 427.06V411.454H404.145V386.448H404.237H435.173V352.134H466.2V278.759H435.173V292.449H404.237V311.522L404.145 311.614V311.522H373.209V327.128H342.182V304.313H373.209V283.049H404.145V217.888V152.818H373.118V181.657H342.182V217.523H311.155V172.804H342.182V100.069H311.155V71.2301H280.127V32.7177H253.206V0.228516H218.073V32.7177H187.045V71.2301H156.018V100.069H125.082V172.804H156.018V217.523H125.082V181.657H94.0546V152.818H63.0273V217.888V283.049H94.0546V304.313H125.082V327.128H94.0546V311.522H63.0273V292.449H32V278.759H0.972656V352.134H32V386.448H63.0273V411.454H94.0546V427.06H125.082V438.65H94.0546V433.813H63.0273V418.846H32V402.328H0.972656V474.881H32V506.001H63.0273V530.55H94.0546V542.962H125.082V556.104H156.018V565.321H187.045V577.094H218.073V641.89H249.009V577.094H280.127V565.321H311.155V556.104H342.182V542.962H373.118V530.55H404.145V506.001L404.237 505.91V506.001H435.173V474.881H466.2V402.328H435.173V418.846H404.237V433.996L404.145 433.813H373.118V438.65H342.182V427.06H373.209Z" fill="#97D9EA"/>
</svg>
