<svg width="455" height="545" viewBox="0 0 455 545" fill="none" xmlns="http://www.w3.org/2000/svg">
<path d="M403.451 151.87H334.087V182.023H334.152L334.087 182.088H309.888V212.24H309.952H283.035V242.458H346.964H393.746V212.24H423.963V182.088L423.898 182.023H454.18V151.87H403.451Z" fill="#FB4F29"/>
<path d="M275.143 182.088V182.023H298.049V151.87H321.989V121.653H343.407V91.5003V61.3476V31.195V0.977661H306.46V31.195H288.472V61.3476H251.461V91.5003V121.653V151.87V182.023L251.525 182.088H251.461V212.24H275.143V182.088Z" fill="#FB4F29"/>
<path d="M133.046 151.87H156.987V182.023H179.893V182.088V212.24H203.51V182.088V182.023V151.87V121.653V91.5003V61.3476H166.563V31.195H148.575V0.977661H111.629V31.195V61.3476V91.5003V121.653H133.046V151.87Z" fill="#FB4F29"/>
<path d="M31.0726 182.088V212.24H61.2253H61.29H61.2253V242.458H108.007H172.001V212.24H145.083H145.148V182.088L120.948 182.023V151.87H51.5842H0.855286V182.023H31.0726V182.088Z" fill="#FB4F29"/>
<path d="M120.948 363.133H120.884L120.948 363.068H145.148V332.916H145.083H145.148H172.001V302.698H108.007H61.2253V332.916H61.29H31.0726V363.068L31.1373 363.133H0.855286V393.286H51.5842H120.948V363.133Z" fill="#FB4F29"/>
<path d="M179.893 363.068L156.987 363.132V393.285H133.046V423.502H111.629V453.655V483.808V514.025V544.178H148.575V514.025H166.563V483.808H203.51V453.655V423.502V393.285V363.132V363.068V332.915H179.893V363.068Z" fill="#FB4F29"/>
<path d="M321.989 393.285H298.049V363.132L275.143 363.068V332.915H251.461V363.068H251.525L251.461 363.132V393.285V423.502V453.655V483.808H288.472V514.025H306.46V544.178H343.407V514.025V483.808V453.655V423.502H321.989V393.285Z" fill="#FB4F29"/>
<path d="M423.963 363.068V332.916H393.746V302.698H346.964H283.035V332.916H309.888V363.068H334.087L334.152 363.133H334.087V393.286H403.451H454.18V363.133H423.898L423.963 363.068Z" fill="#FB4F29"/>
<path d="M268.671 257.728H243.047V227.575H205.842V257.728H180.219V287.945H205.842V318.098H243.047V287.945H268.671V257.728Z" fill="#FB4F29"/>
</svg>
